<svg width="1438" height="918" viewBox="0 0 1438 918" fill="none" xmlns="http://www.w3.org/2000/svg">
<g opacity="0.2">
<path d="M-39.1189 -51.1625L1.78745 -51.1625L22.2406 -15.7366L1.78745 19.6893H-39.1189L-59.572 -15.7366L-39.1189 -51.1625Z" stroke="#5D5FEF" stroke-width="1.67493"/>
<path d="M-39.1189 109.631L1.78745 109.631L22.2406 145.057L1.78745 180.483H-39.1189L-59.572 145.057L-39.1189 109.631Z" stroke="#5D5FEF" stroke-width="1.67493"/>
<path d="M-39.1189 270.425L1.78745 270.425L22.2406 305.851L1.78745 341.277H-39.1189L-59.572 305.851L-39.1189 270.425Z" stroke="#5D5FEF" stroke-width="1.67493"/>
<path d="M-39.1189 431.219L1.78745 431.219L22.2406 466.644L1.78745 502.07H-39.1189L-59.572 466.644L-39.1189 431.219Z" stroke="#5D5FEF" stroke-width="1.67493"/>
<path d="M-39.1189 592.012L1.78745 592.012L22.2406 627.438L1.78745 662.864H-39.1189L-59.572 627.438L-39.1189 592.012Z" stroke="#5D5FEF" stroke-width="1.67493"/>
<path d="M102.414 -51.1625L143.32 -51.1625L163.773 -15.7366L143.32 19.6893H102.414L81.9607 -15.7366L102.414 -51.1625Z" stroke="#5D5FEF" stroke-width="1.67493"/>
<path d="M102.414 109.631L143.32 109.631L163.773 145.057L143.32 180.483H102.414L81.9607 145.057L102.414 109.631Z" stroke="#5D5FEF" stroke-width="1.67493"/>
<path d="M102.414 270.425L143.32 270.425L163.773 305.851L143.32 341.277H102.414L81.9607 305.851L102.414 270.425Z" stroke="#5D5FEF" stroke-width="1.67493"/>
<path d="M102.414 431.218L143.32 431.218L163.773 466.644L143.32 502.07H102.414L81.9607 466.644L102.414 431.218Z" stroke="#5D5FEF" stroke-width="1.67493"/>
<path d="M102.414 592.012L143.32 592.012L163.773 627.438L143.32 662.864H102.414L81.9607 627.438L102.414 592.012Z" stroke="#5D5FEF" stroke-width="1.67493"/>
<path d="M243.944 -51.1625L284.85 -51.1625L305.304 -15.7366L284.85 19.6893H243.944L223.491 -15.7366L243.944 -51.1625Z" stroke="#5D5FEF" stroke-width="1.67493"/>
<path d="M243.944 109.631L284.85 109.631L305.304 145.057L284.85 180.483H243.944L223.491 145.057L243.944 109.631Z" stroke="#5D5FEF" stroke-width="1.67493"/>
<path d="M243.944 270.425L284.85 270.425L305.304 305.851L284.85 341.277H243.944L223.491 305.851L243.944 270.425Z" stroke="#5D5FEF" stroke-width="1.67493"/>
<path d="M243.944 431.219L284.85 431.219L305.304 466.644L284.85 502.07H243.944L223.491 466.644L243.944 431.219Z" stroke="#5D5FEF" stroke-width="1.67493"/>
<path d="M243.944 592.012L284.85 592.012L305.304 627.438L284.85 662.864H243.944L223.491 627.438L243.944 592.012Z" stroke="#5D5FEF" stroke-width="1.67493"/>
<path d="M385.478 -51.1625L426.384 -51.1625L446.837 -15.7366L426.384 19.6893H385.478L365.025 -15.7366L385.478 -51.1625Z" stroke="#5D5FEF" stroke-width="1.67493"/>
<path d="M385.478 109.631L426.384 109.631L446.837 145.057L426.384 180.483H385.478L365.025 145.057L385.478 109.631Z" stroke="#5D5FEF" stroke-width="1.67493"/>
<path d="M385.478 270.425L426.384 270.425L446.837 305.851L426.384 341.277H385.478L365.025 305.851L385.478 270.425Z" stroke="#5D5FEF" stroke-width="1.67493"/>
<path d="M385.478 431.218L426.384 431.218L446.837 466.644L426.384 502.07H385.478L365.025 466.644L385.478 431.218Z" stroke="#5D5FEF" stroke-width="1.67493"/>
<path d="M385.478 592.012L426.384 592.012L446.837 627.438L426.384 662.864H385.478L365.025 627.438L385.478 592.012Z" stroke="#5D5FEF" stroke-width="1.67493"/>
<path d="M527.008 -51.1625L567.914 -51.1625L588.368 -15.7366L567.914 19.6893H527.008L506.555 -15.7366L527.008 -51.1625Z" stroke="#5D5FEF" stroke-width="1.67493"/>
<path d="M527.008 109.631L567.914 109.631L588.368 145.057L567.914 180.483H527.008L506.555 145.057L527.008 109.631Z" stroke="#5D5FEF" stroke-width="1.67493"/>
<path d="M527.008 270.425L567.914 270.425L588.368 305.851L567.914 341.277H527.008L506.555 305.851L527.008 270.425Z" stroke="#5D5FEF" stroke-width="1.67493"/>
<path d="M527.008 431.219L567.914 431.219L588.368 466.644L567.914 502.07H527.008L506.555 466.644L527.008 431.219Z" stroke="#5D5FEF" stroke-width="1.67493"/>
<path d="M527.008 592.012L567.914 592.012L588.368 627.438L567.914 662.864H527.008L506.555 627.438L527.008 592.012Z" stroke="#5D5FEF" stroke-width="1.67493"/>
<path d="M668.542 -51.1625L709.448 -51.1625L729.901 -15.7366L709.448 19.6893H668.542L648.089 -15.7366L668.542 -51.1625Z" stroke="#5D5FEF" stroke-width="1.67493"/>
<path d="M668.542 109.631L709.448 109.631L729.901 145.057L709.448 180.483H668.542L648.089 145.057L668.542 109.631Z" stroke="#5D5FEF" stroke-width="1.67493"/>
<path d="M668.542 270.425L709.448 270.425L729.901 305.851L709.448 341.277H668.542L648.089 305.851L668.542 270.425Z" stroke="#5D5FEF" stroke-width="1.67493"/>
<path d="M668.542 431.219L709.448 431.219L729.901 466.644L709.448 502.07H668.542L648.089 466.644L668.542 431.219Z" stroke="#5D5FEF" stroke-width="1.67493"/>
<path d="M668.542 592.012L709.448 592.012L729.901 627.438L709.448 662.864H668.542L648.089 627.438L668.542 592.012Z" stroke="#5D5FEF" stroke-width="1.67493"/>
<path d="M810.074 -51.1625L850.98 -51.1625L871.433 -15.7366L850.98 19.6893H810.074L789.62 -15.7366L810.074 -51.1625Z" stroke="#5D5FEF" stroke-width="1.67493"/>
<path d="M951.605 -51.1625L992.511 -51.1625L1012.96 -15.7366L992.511 19.6893H951.605L931.152 -15.7366L951.605 -51.1625Z" stroke="#5D5FEF" stroke-width="1.67493"/>
<path d="M1093.14 -51.1625L1134.04 -51.1625L1154.5 -15.7366L1134.04 19.6893H1093.14L1072.68 -15.7366L1093.14 -51.1625Z" stroke="#5D5FEF" stroke-width="1.67493"/>
<path d="M1234.67 -51.1625L1275.58 -51.1625L1296.03 -15.7366L1275.58 19.6893H1234.67L1214.22 -15.7366L1234.67 -51.1625Z" stroke="#5D5FEF" stroke-width="1.67493"/>
<path d="M1376.2 -51.1625L1417.11 -51.1625L1437.56 -15.7366L1417.11 19.6893H1376.2L1355.75 -15.7366L1376.2 -51.1625Z" stroke="#5D5FEF" stroke-width="1.67493"/>
<path d="M810.074 109.631L850.98 109.631L871.433 145.057L850.98 180.483H810.074L789.62 145.057L810.074 109.631Z" stroke="#5D5FEF" stroke-width="1.67493"/>
<path d="M951.605 109.631L992.511 109.631L1012.96 145.057L992.511 180.483H951.605L931.152 145.057L951.605 109.631Z" stroke="#5D5FEF" stroke-width="1.67493"/>
<path d="M1093.14 109.631L1134.04 109.631L1154.5 145.057L1134.04 180.483H1093.14L1072.68 145.057L1093.14 109.631Z" stroke="#5D5FEF" stroke-width="1.67493"/>
<path d="M1234.67 109.631L1275.58 109.631L1296.03 145.057L1275.58 180.483H1234.67L1214.22 145.057L1234.67 109.631Z" stroke="#5D5FEF" stroke-width="1.67493"/>
<path d="M1376.2 109.631L1417.11 109.631L1437.56 145.057L1417.11 180.483H1376.2L1355.75 145.057L1376.2 109.631Z" stroke="#5D5FEF" stroke-width="1.67493"/>
<path d="M810.074 270.425L850.98 270.425L871.433 305.851L850.98 341.277H810.074L789.62 305.851L810.074 270.425Z" stroke="#5D5FEF" stroke-width="1.67493"/>
<path d="M951.605 270.425L992.511 270.425L1012.96 305.851L992.511 341.277H951.605L931.152 305.851L951.605 270.425Z" stroke="#5D5FEF" stroke-width="1.67493"/>
<path d="M1093.14 270.425L1134.04 270.425L1154.5 305.851L1134.04 341.277H1093.14L1072.68 305.851L1093.14 270.425Z" stroke="#5D5FEF" stroke-width="1.67493"/>
<path d="M1234.67 270.425L1275.58 270.425L1296.03 305.851L1275.58 341.277H1234.67L1214.22 305.851L1234.67 270.425Z" stroke="#5D5FEF" stroke-width="1.67493"/>
<path d="M1376.2 270.425L1417.11 270.425L1437.56 305.851L1417.11 341.277H1376.2L1355.75 305.851L1376.2 270.425Z" stroke="#5D5FEF" stroke-width="1.67493"/>
<path d="M810.074 431.218L850.98 431.218L871.433 466.644L850.98 502.07H810.074L789.62 466.644L810.074 431.218Z" stroke="#5D5FEF" stroke-width="1.67493"/>
<path d="M951.605 431.219L992.511 431.219L1012.96 466.644L992.511 502.07H951.605L931.152 466.644L951.605 431.219Z" stroke="#5D5FEF" stroke-width="1.67493"/>
<path d="M1093.14 431.219L1134.04 431.219L1154.5 466.644L1134.04 502.07H1093.14L1072.68 466.644L1093.14 431.219Z" stroke="#5D5FEF" stroke-width="1.67493"/>
<path d="M1234.67 431.219L1275.58 431.219L1296.03 466.644L1275.58 502.07H1234.67L1214.22 466.644L1234.67 431.219Z" stroke="#5D5FEF" stroke-width="1.67493"/>
<path d="M1376.2 431.219L1417.11 431.219L1437.56 466.644L1417.11 502.07H1376.2L1355.75 466.644L1376.2 431.219Z" stroke="#5D5FEF" stroke-width="1.67493"/>
<path d="M810.074 592.012L850.98 592.012L871.433 627.438L850.98 662.864H810.074L789.62 627.438L810.074 592.012Z" stroke="#5D5FEF" stroke-width="1.67493"/>
<path d="M951.605 592.012L992.511 592.012L1012.96 627.438L992.511 662.864H951.605L931.152 627.438L951.605 592.012Z" stroke="#5D5FEF" stroke-width="1.67493"/>
<path d="M1093.14 592.012L1134.04 592.012L1154.5 627.438L1134.04 662.864H1093.14L1072.68 627.438L1093.14 592.012Z" stroke="#5D5FEF" stroke-width="1.67493"/>
<path d="M1234.67 592.012L1275.58 592.012L1296.03 627.438L1275.58 662.864H1234.67L1214.22 627.438L1234.67 592.012Z" stroke="#5D5FEF" stroke-width="1.67493"/>
<path d="M1376.2 592.012L1417.11 592.012L1437.56 627.438L1417.11 662.864H1376.2L1355.75 627.438L1376.2 592.012Z" stroke="#5D5FEF" stroke-width="1.67493"/>
<path d="M31.2283 69.4329L72.1346 69.4329L92.5878 104.859L72.1346 140.285H31.2283L10.7751 104.859L31.2283 69.4329Z" stroke="#5D5FEF" stroke-width="1.67493"/>
<path d="M31.2283 230.226L72.1346 230.226L92.5878 265.652L72.1346 301.078H31.2283L10.7751 265.652L31.2283 230.226Z" stroke="#5D5FEF" stroke-width="1.67493"/>
<path d="M31.2283 391.02L72.1346 391.02L92.5878 426.446L72.1346 461.872H31.2283L10.7751 426.446L31.2283 391.02Z" stroke="#5D5FEF" stroke-width="1.67493"/>
<path d="M31.2283 551.814L72.1346 551.814L92.5878 587.24L72.1346 622.666H31.2283L10.7751 587.24L31.2283 551.814Z" stroke="#5D5FEF" stroke-width="1.67493"/>
<path d="M31.2283 712.607L72.1346 712.607L92.5878 748.033L72.1346 783.459H31.2283L10.7751 748.033L31.2283 712.607Z" stroke="#5D5FEF" stroke-width="1.67493"/>
<path d="M31.2283 793.842L72.1346 793.842L92.5878 829.268L72.1346 864.694H31.2283L10.7751 829.268L31.2283 793.842Z" stroke="#5D5FEF" stroke-width="1.67493"/>
<path d="M31.2283 875.076L72.1346 875.076L92.5878 910.502L72.1346 945.928H31.2283L10.7751 910.502L31.2283 875.076Z" stroke="#5D5FEF" stroke-width="1.67493"/>
<path d="M172.76 69.4327L213.666 69.4327L234.12 104.859L213.666 140.285H172.76L152.307 104.859L172.76 69.4327Z" stroke="#5D5FEF" stroke-width="1.67493"/>
<path d="M172.76 230.226L213.666 230.226L234.12 265.652L213.666 301.078H172.76L152.307 265.652L172.76 230.226Z" stroke="#5D5FEF" stroke-width="1.67493"/>
<path d="M172.76 391.02L213.666 391.02L234.12 426.446L213.666 461.872H172.76L152.307 426.446L172.76 391.02Z" stroke="#5D5FEF" stroke-width="1.67493"/>
<path d="M172.76 551.814L213.666 551.814L234.12 587.24L213.666 622.666H172.76L152.307 587.24L172.76 551.814Z" stroke="#5D5FEF" stroke-width="1.67493"/>
<path d="M172.76 712.607L213.666 712.607L234.12 748.033L213.666 783.459H172.76L152.307 748.033L172.76 712.607Z" stroke="#5D5FEF" stroke-width="1.67493"/>
<path d="M172.76 793.842L213.666 793.842L234.12 829.268L213.666 864.694H172.76L152.307 829.268L172.76 793.842Z" stroke="#5D5FEF" stroke-width="1.67493"/>
<path d="M172.76 875.076L213.666 875.076L234.12 910.502L213.666 945.928H172.76L152.307 910.502L172.76 875.076Z" stroke="#5D5FEF" stroke-width="1.67493"/>
<path d="M314.292 69.4329L355.199 69.4329L375.652 104.859L355.199 140.285H314.292L293.839 104.859L314.292 69.4329Z" stroke="#5D5FEF" stroke-width="1.67493"/>
<path d="M314.292 230.226L355.199 230.226L375.652 265.652L355.199 301.078H314.292L293.839 265.652L314.292 230.226Z" stroke="#5D5FEF" stroke-width="1.67493"/>
<path d="M314.292 391.02L355.199 391.02L375.652 426.446L355.199 461.872H314.292L293.839 426.446L314.292 391.02Z" stroke="#5D5FEF" stroke-width="1.67493"/>
<path d="M314.292 551.814L355.199 551.814L375.652 587.24L355.199 622.666H314.292L293.839 587.24L314.292 551.814Z" stroke="#5D5FEF" stroke-width="1.67493"/>
<path d="M314.292 712.607L355.199 712.607L375.652 748.033L355.199 783.459H314.292L293.839 748.033L314.292 712.607Z" stroke="#5D5FEF" stroke-width="1.67493"/>
<path d="M314.292 793.842L355.199 793.842L375.652 829.268L355.199 864.694H314.292L293.839 829.268L314.292 793.842Z" stroke="#5D5FEF" stroke-width="1.67493"/>
<path d="M314.292 875.076L355.199 875.076L375.652 910.502L355.199 945.928H314.292L293.839 910.502L314.292 875.076Z" stroke="#5D5FEF" stroke-width="1.67493"/>
<path d="M455.826 69.4329L496.732 69.4329L517.185 104.859L496.732 140.285H455.826L435.373 104.859L455.826 69.4329Z" stroke="#5D5FEF" stroke-width="1.67493"/>
<path d="M455.826 230.226L496.732 230.226L517.185 265.652L496.732 301.078H455.826L435.373 265.652L455.826 230.226Z" stroke="#5D5FEF" stroke-width="1.67493"/>
<path d="M455.826 391.02L496.732 391.02L517.185 426.446L496.732 461.872H455.826L435.373 426.446L455.826 391.02Z" stroke="#5D5FEF" stroke-width="1.67493"/>
<path d="M455.826 551.814L496.732 551.814L517.185 587.24L496.732 622.666H455.826L435.373 587.24L455.826 551.814Z" stroke="#5D5FEF" stroke-width="1.67493"/>
<path d="M455.826 712.607L496.732 712.607L517.185 748.033L496.732 783.459H455.826L435.373 748.033L455.826 712.607Z" stroke="#5D5FEF" stroke-width="1.67493"/>
<path d="M455.826 793.842L496.732 793.842L517.185 829.268L496.732 864.694H455.826L435.373 829.268L455.826 793.842Z" stroke="#5D5FEF" stroke-width="1.67493"/>
<path d="M455.826 875.076L496.732 875.076L517.185 910.502L496.732 945.928H455.826L435.373 910.502L455.826 875.076Z" stroke="#5D5FEF" stroke-width="1.67493"/>
<path d="M597.355 69.4329L638.262 69.4329L658.715 104.859L638.262 140.285H597.355L576.902 104.859L597.355 69.4329Z" stroke="#5D5FEF" stroke-width="1.67493"/>
<path d="M597.355 230.226L638.262 230.226L658.715 265.652L638.262 301.078H597.355L576.902 265.652L597.355 230.226Z" stroke="#5D5FEF" stroke-width="1.67493"/>
<path d="M597.355 391.02L638.262 391.02L658.715 426.446L638.262 461.872H597.355L576.902 426.446L597.355 391.02Z" stroke="#5D5FEF" stroke-width="1.67493"/>
<path d="M597.355 551.814L638.262 551.814L658.715 587.24L638.262 622.666H597.355L576.902 587.24L597.355 551.814Z" stroke="#5D5FEF" stroke-width="1.67493"/>
<path d="M597.355 712.607L638.262 712.607L658.715 748.033L638.262 783.459H597.355L576.902 748.033L597.355 712.607Z" stroke="#5D5FEF" stroke-width="1.67493"/>
<path d="M597.355 793.842L638.262 793.842L658.715 829.268L638.262 864.694H597.355L576.902 829.268L597.355 793.842Z" stroke="#5D5FEF" stroke-width="1.67493"/>
<path d="M597.355 875.076L638.262 875.076L658.715 910.502L638.262 945.928H597.355L576.902 910.502L597.355 875.076Z" stroke="#5D5FEF" stroke-width="1.67493"/>
<path d="M738.889 69.4329L779.795 69.4329L800.248 104.859L779.795 140.285H738.889L718.436 104.859L738.889 69.4329Z" stroke="#5D5FEF" stroke-width="1.67493"/>
<path d="M738.889 230.226L779.795 230.226L800.248 265.652L779.795 301.078H738.889L718.436 265.652L738.889 230.226Z" stroke="#5D5FEF" stroke-width="1.67493"/>
<path d="M738.889 391.02L779.795 391.02L800.248 426.446L779.795 461.872H738.889L718.436 426.446L738.889 391.02Z" stroke="#5D5FEF" stroke-width="1.67493"/>
<path d="M738.889 551.814L779.795 551.814L800.248 587.24L779.795 622.666H738.889L718.436 587.24L738.889 551.814Z" stroke="#5D5FEF" stroke-width="1.67493"/>
<path d="M738.889 712.607L779.795 712.607L800.248 748.033L779.795 783.459H738.889L718.436 748.033L738.889 712.607Z" stroke="#5D5FEF" stroke-width="1.67493"/>
<path d="M738.889 793.842L779.795 793.842L800.248 829.268L779.795 864.694H738.889L718.436 829.268L738.889 793.842Z" stroke="#5D5FEF" stroke-width="1.67493"/>
<path d="M738.889 875.076L779.795 875.076L800.248 910.502L779.795 945.928H738.889L718.436 910.502L738.889 875.076Z" stroke="#5D5FEF" stroke-width="1.67493"/>
<path d="M880.42 69.4327L921.327 69.4327L941.78 104.859L921.327 140.285H880.42L859.967 104.859L880.42 69.4327Z" stroke="#5D5FEF" stroke-width="1.67493"/>
<path d="M1021.95 69.4329L1062.86 69.4329L1083.31 104.859L1062.86 140.285H1021.95L1001.5 104.859L1021.95 69.4329Z" stroke="#5D5FEF" stroke-width="1.67493"/>
<path d="M1163.48 69.4329L1204.39 69.4329L1224.84 104.859L1204.39 140.285H1163.48L1143.03 104.859L1163.48 69.4329Z" stroke="#5D5FEF" stroke-width="1.67493"/>
<path d="M1305.02 69.4329L1345.92 69.4329L1366.38 104.859L1345.92 140.285H1305.02L1284.56 104.859L1305.02 69.4329Z" stroke="#5D5FEF" stroke-width="1.67493"/>
<path d="M1446.55 69.4329L1487.45 69.4329L1507.91 104.859L1487.45 140.285H1446.55L1426.09 104.859L1446.55 69.4329Z" stroke="#5D5FEF" stroke-width="1.67493"/>
<path d="M880.42 230.226L921.327 230.226L941.78 265.652L921.327 301.078H880.42L859.967 265.652L880.42 230.226Z" stroke="#5D5FEF" stroke-width="1.67493"/>
<path d="M1021.95 230.226L1062.86 230.226L1083.31 265.652L1062.86 301.078H1021.95L1001.5 265.652L1021.95 230.226Z" stroke="#5D5FEF" stroke-width="1.67493"/>
<path d="M1163.48 230.226L1204.39 230.226L1224.84 265.652L1204.39 301.078H1163.48L1143.03 265.652L1163.48 230.226Z" stroke="#5D5FEF" stroke-width="1.67493"/>
<path d="M1305.02 230.226L1345.92 230.226L1366.38 265.652L1345.92 301.078H1305.02L1284.56 265.652L1305.02 230.226Z" stroke="#5D5FEF" stroke-width="1.67493"/>
<path d="M1446.55 230.226L1487.45 230.226L1507.91 265.652L1487.45 301.078H1446.55L1426.09 265.652L1446.55 230.226Z" stroke="#5D5FEF" stroke-width="1.67493"/>
<path d="M880.42 391.02L921.327 391.02L941.78 426.446L921.327 461.872H880.42L859.967 426.446L880.42 391.02Z" stroke="#5D5FEF" stroke-width="1.67493"/>
<path d="M1021.95 391.02L1062.86 391.02L1083.31 426.446L1062.86 461.872H1021.95L1001.5 426.446L1021.95 391.02Z" stroke="#5D5FEF" stroke-width="1.67493"/>
<path d="M1163.48 391.02L1204.39 391.02L1224.84 426.446L1204.39 461.872H1163.48L1143.03 426.446L1163.48 391.02Z" stroke="#5D5FEF" stroke-width="1.67493"/>
<path d="M1305.02 391.02L1345.92 391.02L1366.38 426.446L1345.92 461.872H1305.02L1284.56 426.446L1305.02 391.02Z" stroke="#5D5FEF" stroke-width="1.67493"/>
<path d="M1446.55 391.02L1487.45 391.02L1507.91 426.446L1487.45 461.872H1446.55L1426.09 426.446L1446.55 391.02Z" stroke="#5D5FEF" stroke-width="1.67493"/>
<path d="M880.42 551.814L921.327 551.814L941.78 587.24L921.327 622.666H880.42L859.967 587.24L880.42 551.814Z" stroke="#5D5FEF" stroke-width="1.67493"/>
<path d="M1021.95 551.814L1062.86 551.814L1083.31 587.24L1062.86 622.666H1021.95L1001.5 587.24L1021.95 551.814Z" stroke="#5D5FEF" stroke-width="1.67493"/>
<path d="M1163.48 551.814L1204.39 551.814L1224.84 587.24L1204.39 622.666H1163.48L1143.03 587.24L1163.48 551.814Z" stroke="#5D5FEF" stroke-width="1.67493"/>
<path d="M1305.02 551.814L1345.92 551.814L1366.38 587.24L1345.92 622.666H1305.02L1284.56 587.24L1305.02 551.814Z" stroke="#5D5FEF" stroke-width="1.67493"/>
<path d="M1446.55 551.814L1487.45 551.814L1507.91 587.24L1487.45 622.666H1446.55L1426.09 587.24L1446.55 551.814Z" stroke="#5D5FEF" stroke-width="1.67493"/>
<path d="M880.42 712.607L921.327 712.607L941.78 748.033L921.327 783.459H880.42L859.967 748.033L880.42 712.607Z" stroke="#5D5FEF" stroke-width="1.67493"/>
<path d="M880.42 793.842L921.327 793.842L941.78 829.268L921.327 864.694H880.42L859.967 829.268L880.42 793.842Z" stroke="#5D5FEF" stroke-width="1.67493"/>
<path d="M880.42 875.076L921.327 875.076L941.78 910.502L921.327 945.928H880.42L859.967 910.502L880.42 875.076Z" stroke="#5D5FEF" stroke-width="1.67493"/>
<path d="M1021.95 712.607L1062.86 712.607L1083.31 748.033L1062.86 783.459H1021.95L1001.5 748.033L1021.95 712.607Z" stroke="#5D5FEF" stroke-width="1.67493"/>
<path d="M1021.95 793.842L1062.86 793.842L1083.31 829.268L1062.86 864.694H1021.95L1001.5 829.268L1021.95 793.842Z" stroke="#5D5FEF" stroke-width="1.67493"/>
<path d="M1021.95 875.076L1062.86 875.076L1083.31 910.502L1062.86 945.928H1021.95L1001.5 910.502L1021.95 875.076Z" stroke="#5D5FEF" stroke-width="1.67493"/>
<path d="M1163.48 712.607L1204.39 712.607L1224.84 748.033L1204.39 783.459H1163.48L1143.03 748.033L1163.48 712.607Z" stroke="#5D5FEF" stroke-width="1.67493"/>
<path d="M1163.48 793.842L1204.39 793.842L1224.84 829.268L1204.39 864.694H1163.48L1143.03 829.268L1163.48 793.842Z" stroke="#5D5FEF" stroke-width="1.67493"/>
<path d="M1163.48 875.076L1204.39 875.076L1224.84 910.502L1204.39 945.928H1163.48L1143.03 910.502L1163.48 875.076Z" stroke="#5D5FEF" stroke-width="1.67493"/>
<path d="M1305.02 712.607L1345.92 712.607L1366.38 748.033L1345.92 783.459H1305.02L1284.56 748.033L1305.02 712.607Z" stroke="#5D5FEF" stroke-width="1.67493"/>
<path d="M1305.02 793.842L1345.92 793.842L1366.38 829.268L1345.92 864.694H1305.02L1284.56 829.268L1305.02 793.842Z" stroke="#5D5FEF" stroke-width="1.67493"/>
<path d="M1305.02 875.076L1345.92 875.076L1366.38 910.502L1345.92 945.928H1305.02L1284.56 910.502L1305.02 875.076Z" stroke="#5D5FEF" stroke-width="1.67493"/>
<path d="M1446.55 712.607L1487.45 712.607L1507.91 748.033L1487.45 783.459H1446.55L1426.09 748.033L1446.55 712.607Z" stroke="#5D5FEF" stroke-width="1.67493"/>
<path d="M1446.55 793.842L1487.45 793.842L1507.91 829.268L1487.45 864.694H1446.55L1426.09 829.268L1446.55 793.842Z" stroke="#5D5FEF" stroke-width="1.67493"/>
<path d="M1446.55 875.076L1487.45 875.076L1507.91 910.502L1487.45 945.928H1446.55L1426.09 910.502L1446.55 875.076Z" stroke="#5D5FEF" stroke-width="1.67493"/>
<path d="M31.2283 -10.1266L72.1346 -10.1266L92.5878 25.2993L72.1346 60.7252H31.2283L10.7751 25.2993L31.2283 -10.1266Z" stroke="#5D5FEF" stroke-width="1.67493"/>
<path d="M31.2283 150.667L72.1346 150.667L92.5878 186.093L72.1346 221.519H31.2283L10.7751 186.093L31.2283 150.667Z" stroke="#5D5FEF" stroke-width="1.67493"/>
<path d="M31.2283 311.461L72.1346 311.461L92.5878 346.887L72.1346 382.313H31.2283L10.7751 346.887L31.2283 311.461Z" stroke="#5D5FEF" stroke-width="1.67493"/>
<path d="M31.2283 472.254L72.1346 472.254L92.5878 507.68L72.1346 543.106H31.2283L10.7751 507.68L31.2283 472.254Z" stroke="#5D5FEF" stroke-width="1.67493"/>
<path d="M31.2283 633.048L72.1346 633.048L92.5878 668.474L72.1346 703.9H31.2283L10.7751 668.474L31.2283 633.048Z" stroke="#5D5FEF" stroke-width="1.67493"/>
<path d="M172.76 -10.1266L213.666 -10.1266L234.12 25.2993L213.666 60.7252H172.76L152.307 25.2993L172.76 -10.1266Z" stroke="#5D5FEF" stroke-width="1.67493"/>
<path d="M172.76 150.667L213.666 150.667L234.12 186.093L213.666 221.519H172.76L152.307 186.093L172.76 150.667Z" stroke="#5D5FEF" stroke-width="1.67493"/>
<path d="M172.76 311.461L213.666 311.461L234.12 346.886L213.666 382.312H172.76L152.307 346.886L172.76 311.461Z" stroke="#5D5FEF" stroke-width="1.67493"/>
<path d="M172.76 472.254L213.666 472.254L234.12 507.68L213.666 543.106H172.76L152.307 507.68L172.76 472.254Z" stroke="#5D5FEF" stroke-width="1.67493"/>
<path d="M172.76 633.048L213.666 633.048L234.12 668.474L213.666 703.9H172.76L152.307 668.474L172.76 633.048Z" stroke="#5D5FEF" stroke-width="1.67493"/>
<path d="M314.292 -10.1266L355.199 -10.1266L375.652 25.2993L355.199 60.7252H314.292L293.839 25.2993L314.292 -10.1266Z" stroke="#5D5FEF" stroke-width="1.67493"/>
<path d="M314.292 150.667L355.199 150.667L375.652 186.093L355.199 221.519H314.292L293.839 186.093L314.292 150.667Z" stroke="#5D5FEF" stroke-width="1.67493"/>
<path d="M314.292 311.461L355.199 311.461L375.652 346.887L355.199 382.313H314.292L293.839 346.887L314.292 311.461Z" stroke="#5D5FEF" stroke-width="1.67493"/>
<path d="M314.292 472.254L355.199 472.254L375.652 507.68L355.199 543.106H314.292L293.839 507.68L314.292 472.254Z" stroke="#5D5FEF" stroke-width="1.67493"/>
<path d="M314.292 633.048L355.199 633.048L375.652 668.474L355.199 703.9H314.292L293.839 668.474L314.292 633.048Z" stroke="#5D5FEF" stroke-width="1.67493"/>
<path d="M455.826 -10.1266L496.732 -10.1266L517.185 25.2993L496.732 60.7252H455.826L435.373 25.2993L455.826 -10.1266Z" stroke="#5D5FEF" stroke-width="1.67493"/>
<path d="M455.826 150.667L496.732 150.667L517.185 186.093L496.732 221.519H455.826L435.373 186.093L455.826 150.667Z" stroke="#5D5FEF" stroke-width="1.67493"/>
<path d="M455.826 311.461L496.732 311.461L517.185 346.887L496.732 382.313H455.826L435.373 346.887L455.826 311.461Z" stroke="#5D5FEF" stroke-width="1.67493"/>
<path d="M455.826 472.254L496.732 472.254L517.185 507.68L496.732 543.106H455.826L435.373 507.68L455.826 472.254Z" stroke="#5D5FEF" stroke-width="1.67493"/>
<path d="M455.826 633.048L496.732 633.048L517.185 668.474L496.732 703.9H455.826L435.373 668.474L455.826 633.048Z" stroke="#5D5FEF" stroke-width="1.67493"/>
<path d="M597.355 -10.1266L638.262 -10.1266L658.715 25.2993L638.262 60.7252H597.355L576.902 25.2993L597.355 -10.1266Z" stroke="#5D5FEF" stroke-width="1.67493"/>
<path d="M597.355 150.667L638.262 150.667L658.715 186.093L638.262 221.519H597.355L576.902 186.093L597.355 150.667Z" stroke="#5D5FEF" stroke-width="1.67493"/>
<path d="M597.355 311.461L638.262 311.461L658.715 346.887L638.262 382.313H597.355L576.902 346.887L597.355 311.461Z" stroke="#5D5FEF" stroke-width="1.67493"/>
<path d="M597.355 472.254L638.262 472.254L658.715 507.68L638.262 543.106H597.355L576.902 507.68L597.355 472.254Z" stroke="#5D5FEF" stroke-width="1.67493"/>
<path d="M597.355 633.048L638.262 633.048L658.715 668.474L638.262 703.9H597.355L576.902 668.474L597.355 633.048Z" stroke="#5D5FEF" stroke-width="1.67493"/>
<path d="M738.889 -10.1266L779.795 -10.1266L800.248 25.2993L779.795 60.7252H738.889L718.436 25.2993L738.889 -10.1266Z" stroke="#5D5FEF" stroke-width="1.67493"/>
<path d="M738.889 150.667L779.795 150.667L800.248 186.093L779.795 221.519H738.889L718.436 186.093L738.889 150.667Z" stroke="#5D5FEF" stroke-width="1.67493"/>
<path d="M738.889 311.461L779.795 311.461L800.248 346.887L779.795 382.313H738.889L718.436 346.887L738.889 311.461Z" stroke="#5D5FEF" stroke-width="1.67493"/>
<path d="M738.889 472.254L779.795 472.254L800.248 507.68L779.795 543.106H738.889L718.436 507.68L738.889 472.254Z" stroke="#5D5FEF" stroke-width="1.67493"/>
<path d="M738.889 633.048L779.795 633.048L800.248 668.474L779.795 703.9H738.889L718.436 668.474L738.889 633.048Z" stroke="#5D5FEF" stroke-width="1.67493"/>
<path d="M880.42 -10.1266L921.327 -10.1266L941.78 25.2993L921.327 60.7252H880.42L859.967 25.2993L880.42 -10.1266Z" stroke="#5D5FEF" stroke-width="1.67493"/>
<path d="M1021.95 -10.1266L1062.86 -10.1266L1083.31 25.2993L1062.86 60.7252H1021.95L1001.5 25.2993L1021.95 -10.1266Z" stroke="#5D5FEF" stroke-width="1.67493"/>
<path d="M1163.48 -10.1266L1204.39 -10.1266L1224.84 25.2993L1204.39 60.7252H1163.48L1143.03 25.2993L1163.48 -10.1266Z" stroke="#5D5FEF" stroke-width="1.67493"/>
<path d="M1305.02 -10.1266L1345.92 -10.1266L1366.38 25.2993L1345.92 60.7252H1305.02L1284.56 25.2993L1305.02 -10.1266Z" stroke="#5D5FEF" stroke-width="1.67493"/>
<path d="M1446.55 -10.1266L1487.45 -10.1266L1507.91 25.2993L1487.45 60.7252H1446.55L1426.09 25.2993L1446.55 -10.1266Z" stroke="#5D5FEF" stroke-width="1.67493"/>
<path d="M880.42 150.667L921.327 150.667L941.78 186.093L921.327 221.519H880.42L859.967 186.093L880.42 150.667Z" stroke="#5D5FEF" stroke-width="1.67493"/>
<path d="M1021.95 150.667L1062.86 150.667L1083.31 186.093L1062.86 221.519H1021.95L1001.5 186.093L1021.95 150.667Z" stroke="#5D5FEF" stroke-width="1.67493"/>
<path d="M1163.48 150.667L1204.39 150.667L1224.84 186.093L1204.39 221.519H1163.48L1143.03 186.093L1163.48 150.667Z" stroke="#5D5FEF" stroke-width="1.67493"/>
<path d="M1305.02 150.667L1345.92 150.667L1366.38 186.093L1345.92 221.519H1305.02L1284.56 186.093L1305.02 150.667Z" stroke="#5D5FEF" stroke-width="1.67493"/>
<path d="M1446.55 150.667L1487.45 150.667L1507.91 186.093L1487.45 221.519H1446.55L1426.09 186.093L1446.55 150.667Z" stroke="#5D5FEF" stroke-width="1.67493"/>
<path d="M880.42 311.461L921.327 311.461L941.78 346.886L921.327 382.312H880.42L859.967 346.886L880.42 311.461Z" stroke="#5D5FEF" stroke-width="1.67493"/>
<path d="M1021.95 311.461L1062.86 311.461L1083.31 346.887L1062.86 382.313H1021.95L1001.5 346.887L1021.95 311.461Z" stroke="#5D5FEF" stroke-width="1.67493"/>
<path d="M1163.48 311.461L1204.39 311.461L1224.84 346.887L1204.39 382.313H1163.48L1143.03 346.887L1163.48 311.461Z" stroke="#5D5FEF" stroke-width="1.67493"/>
<path d="M1305.02 311.461L1345.92 311.461L1366.38 346.887L1345.92 382.313H1305.02L1284.56 346.887L1305.02 311.461Z" stroke="#5D5FEF" stroke-width="1.67493"/>
<path d="M1446.55 311.461L1487.45 311.461L1507.91 346.887L1487.45 382.313H1446.55L1426.09 346.887L1446.55 311.461Z" stroke="#5D5FEF" stroke-width="1.67493"/>
<path d="M880.42 472.254L921.327 472.254L941.78 507.68L921.327 543.106H880.42L859.967 507.68L880.42 472.254Z" stroke="#5D5FEF" stroke-width="1.67493"/>
<path d="M1021.95 472.254L1062.86 472.254L1083.31 507.68L1062.86 543.106H1021.95L1001.5 507.68L1021.95 472.254Z" stroke="#5D5FEF" stroke-width="1.67493"/>
<path d="M1163.48 472.254L1204.39 472.254L1224.84 507.68L1204.39 543.106H1163.48L1143.03 507.68L1163.48 472.254Z" stroke="#5D5FEF" stroke-width="1.67493"/>
<path d="M1305.02 472.254L1345.92 472.254L1366.38 507.68L1345.92 543.106H1305.02L1284.56 507.68L1305.02 472.254Z" stroke="#5D5FEF" stroke-width="1.67493"/>
<path d="M1446.55 472.254L1487.45 472.254L1507.91 507.68L1487.45 543.106H1446.55L1426.09 507.68L1446.55 472.254Z" stroke="#5D5FEF" stroke-width="1.67493"/>
<path d="M880.42 633.048L921.327 633.048L941.78 668.474L921.327 703.9H880.42L859.967 668.474L880.42 633.048Z" stroke="#5D5FEF" stroke-width="1.67493"/>
<path d="M1021.95 633.048L1062.86 633.048L1083.31 668.474L1062.86 703.9H1021.95L1001.5 668.474L1021.95 633.048Z" stroke="#5D5FEF" stroke-width="1.67493"/>
<path d="M1163.48 633.048L1204.39 633.048L1224.84 668.474L1204.39 703.9H1163.48L1143.03 668.474L1163.48 633.048Z" stroke="#5D5FEF" stroke-width="1.67493"/>
<path d="M1305.02 633.048L1345.92 633.048L1366.38 668.474L1345.92 703.9H1305.02L1284.56 668.474L1305.02 633.048Z" stroke="#5D5FEF" stroke-width="1.67493"/>
<path d="M1446.55 633.048L1487.45 633.048L1507.91 668.474L1487.45 703.9H1446.55L1426.09 668.474L1446.55 633.048Z" stroke="#5D5FEF" stroke-width="1.67493"/>
<path d="M-39.1189 29.2344L1.78745 29.2344L22.2406 64.6604L1.78745 100.086H-39.1189L-59.572 64.6604L-39.1189 29.2344Z" stroke="#5D5FEF" stroke-width="1.67493"/>
<path d="M-39.1189 190.028L1.78745 190.028L22.2406 225.454L1.78745 260.88H-39.1189L-59.572 225.454L-39.1189 190.028Z" stroke="#5D5FEF" stroke-width="1.67493"/>
<path d="M-39.1189 350.822L1.78745 350.822L22.2406 386.248L1.78745 421.674H-39.1189L-59.572 386.248L-39.1189 350.822Z" stroke="#5D5FEF" stroke-width="1.67493"/>
<path d="M-39.1189 511.615L1.78745 511.615L22.2406 547.041L1.78745 582.467H-39.1189L-59.572 547.041L-39.1189 511.615Z" stroke="#5D5FEF" stroke-width="1.67493"/>
<path d="M-39.1189 672.409L1.78745 672.409L22.2406 707.835L1.78745 743.261H-39.1189L-59.572 707.835L-39.1189 672.409Z" stroke="#5D5FEF" stroke-width="1.67493"/>
<path d="M-39.1189 753.643L1.78745 753.643L22.2406 789.069L1.78745 824.495H-39.1189L-59.572 789.069L-39.1189 753.643Z" stroke="#5D5FEF" stroke-width="1.67493"/>
<path d="M-39.1189 834.878L1.78745 834.878L22.2406 870.303L1.78745 905.729H-39.1189L-59.572 870.303L-39.1189 834.878Z" stroke="#5D5FEF" stroke-width="1.67493"/>
<path d="M-39.1189 916.112L1.78745 916.112L22.2406 951.538L1.78745 986.964H-39.1189L-59.572 951.538L-39.1189 916.112Z" stroke="#5D5FEF" stroke-width="1.67493"/>
<path d="M102.414 29.2344L143.32 29.2344L163.773 64.6604L143.32 100.086H102.414L81.9607 64.6604L102.414 29.2344Z" stroke="#5D5FEF" stroke-width="1.67493"/>
<path d="M102.414 190.028L143.32 190.028L163.773 225.454L143.32 260.88H102.414L81.9607 225.454L102.414 190.028Z" stroke="#5D5FEF" stroke-width="1.67493"/>
<path d="M102.414 350.822L143.32 350.822L163.773 386.248L143.32 421.674H102.414L81.9607 386.248L102.414 350.822Z" stroke="#5D5FEF" stroke-width="1.67493"/>
<path d="M102.414 511.615L143.32 511.615L163.773 547.041L143.32 582.467H102.414L81.9607 547.041L102.414 511.615Z" stroke="#5D5FEF" stroke-width="1.67493"/>
<path d="M102.414 672.409L143.32 672.409L163.773 707.835L143.32 743.261H102.414L81.9607 707.835L102.414 672.409Z" stroke="#5D5FEF" stroke-width="1.67493"/>
<path d="M102.414 753.643L143.32 753.643L163.773 789.069L143.32 824.495H102.414L81.9607 789.069L102.414 753.643Z" stroke="#5D5FEF" stroke-width="1.67493"/>
<path d="M102.414 834.878L143.32 834.878L163.773 870.303L143.32 905.729H102.414L81.9607 870.303L102.414 834.878Z" stroke="#5D5FEF" stroke-width="1.67493"/>
<path d="M102.414 916.112L143.32 916.112L163.773 951.538L143.32 986.964H102.414L81.9607 951.538L102.414 916.112Z" stroke="#5D5FEF" stroke-width="1.67493"/>
<path d="M243.944 29.2344L284.85 29.2344L305.304 64.6604L284.85 100.086H243.944L223.491 64.6604L243.944 29.2344Z" stroke="#5D5FEF" stroke-width="1.67493"/>
<path d="M243.944 190.028L284.85 190.028L305.304 225.454L284.85 260.88H243.944L223.491 225.454L243.944 190.028Z" stroke="#5D5FEF" stroke-width="1.67493"/>
<path d="M243.944 350.822L284.85 350.822L305.304 386.248L284.85 421.674H243.944L223.491 386.248L243.944 350.822Z" stroke="#5D5FEF" stroke-width="1.67493"/>
<path d="M243.944 511.615L284.85 511.615L305.304 547.041L284.85 582.467H243.944L223.491 547.041L243.944 511.615Z" stroke="#5D5FEF" stroke-width="1.67493"/>
<path d="M243.944 672.409L284.85 672.409L305.304 707.835L284.85 743.261H243.944L223.491 707.835L243.944 672.409Z" stroke="#5D5FEF" stroke-width="1.67493"/>
<path d="M243.944 753.643L284.85 753.643L305.304 789.069L284.85 824.495H243.944L223.491 789.069L243.944 753.643Z" stroke="#5D5FEF" stroke-width="1.67493"/>
<path d="M243.944 834.878L284.85 834.878L305.304 870.303L284.85 905.729H243.944L223.491 870.303L243.944 834.878Z" stroke="#5D5FEF" stroke-width="1.67493"/>
<path d="M243.944 916.112L284.85 916.112L305.304 951.538L284.85 986.964H243.944L223.491 951.538L243.944 916.112Z" stroke="#5D5FEF" stroke-width="1.67493"/>
<path d="M385.478 29.2344L426.384 29.2344L446.837 64.6604L426.384 100.086H385.478L365.025 64.6604L385.478 29.2344Z" stroke="#5D5FEF" stroke-width="1.67493"/>
<path d="M385.478 190.028L426.384 190.028L446.837 225.454L426.384 260.88H385.478L365.025 225.454L385.478 190.028Z" stroke="#5D5FEF" stroke-width="1.67493"/>
<path d="M385.478 350.822L426.384 350.822L446.837 386.248L426.384 421.674H385.478L365.025 386.248L385.478 350.822Z" stroke="#5D5FEF" stroke-width="1.67493"/>
<path d="M385.478 511.615L426.384 511.615L446.837 547.041L426.384 582.467H385.478L365.025 547.041L385.478 511.615Z" stroke="#5D5FEF" stroke-width="1.67493"/>
<path d="M385.478 672.409L426.384 672.409L446.837 707.835L426.384 743.261H385.478L365.025 707.835L385.478 672.409Z" stroke="#5D5FEF" stroke-width="1.67493"/>
<path d="M385.478 753.643L426.384 753.643L446.837 789.069L426.384 824.495H385.478L365.025 789.069L385.478 753.643Z" stroke="#5D5FEF" stroke-width="1.67493"/>
<path d="M385.478 834.878L426.384 834.878L446.837 870.303L426.384 905.729H385.478L365.025 870.303L385.478 834.878Z" stroke="#5D5FEF" stroke-width="1.67493"/>
<path d="M385.478 916.112L426.384 916.112L446.837 951.538L426.384 986.964H385.478L365.025 951.538L385.478 916.112Z" stroke="#5D5FEF" stroke-width="1.67493"/>
<path d="M527.008 29.2344L567.914 29.2344L588.368 64.6604L567.914 100.086H527.008L506.555 64.6604L527.008 29.2344Z" stroke="#5D5FEF" stroke-width="1.67493"/>
<path d="M527.008 190.028L567.914 190.028L588.368 225.454L567.914 260.88H527.008L506.555 225.454L527.008 190.028Z" stroke="#5D5FEF" stroke-width="1.67493"/>
<path d="M527.008 350.822L567.914 350.822L588.368 386.248L567.914 421.674H527.008L506.555 386.248L527.008 350.822Z" stroke="#5D5FEF" stroke-width="1.67493"/>
<path d="M527.008 511.615L567.914 511.615L588.368 547.041L567.914 582.467H527.008L506.555 547.041L527.008 511.615Z" stroke="#5D5FEF" stroke-width="1.67493"/>
<path d="M527.008 672.409L567.914 672.409L588.368 707.835L567.914 743.261H527.008L506.555 707.835L527.008 672.409Z" stroke="#5D5FEF" stroke-width="1.67493"/>
<path d="M527.008 753.643L567.914 753.643L588.368 789.069L567.914 824.495H527.008L506.555 789.069L527.008 753.643Z" stroke="#5D5FEF" stroke-width="1.67493"/>
<path d="M527.008 834.878L567.914 834.878L588.368 870.303L567.914 905.729H527.008L506.555 870.303L527.008 834.878Z" stroke="#5D5FEF" stroke-width="1.67493"/>
<path d="M527.008 916.112L567.914 916.112L588.368 951.538L567.914 986.964H527.008L506.555 951.538L527.008 916.112Z" stroke="#5D5FEF" stroke-width="1.67493"/>
<path d="M668.542 29.2344L709.448 29.2344L729.901 64.6604L709.448 100.086H668.542L648.089 64.6604L668.542 29.2344Z" stroke="#5D5FEF" stroke-width="1.67493"/>
<path d="M668.542 190.028L709.448 190.028L729.901 225.454L709.448 260.88H668.542L648.089 225.454L668.542 190.028Z" stroke="#5D5FEF" stroke-width="1.67493"/>
<path d="M668.542 350.822L709.448 350.822L729.901 386.248L709.448 421.674H668.542L648.089 386.248L668.542 350.822Z" stroke="#5D5FEF" stroke-width="1.67493"/>
<path d="M668.542 511.615L709.448 511.615L729.901 547.041L709.448 582.467H668.542L648.089 547.041L668.542 511.615Z" stroke="#5D5FEF" stroke-width="1.67493"/>
<path d="M668.542 672.409L709.448 672.409L729.901 707.835L709.448 743.261H668.542L648.089 707.835L668.542 672.409Z" stroke="#5D5FEF" stroke-width="1.67493"/>
<path d="M668.542 753.643L709.448 753.643L729.901 789.069L709.448 824.495H668.542L648.089 789.069L668.542 753.643Z" stroke="#5D5FEF" stroke-width="1.67493"/>
<path d="M668.542 834.878L709.448 834.878L729.901 870.303L709.448 905.729H668.542L648.089 870.303L668.542 834.878Z" stroke="#5D5FEF" stroke-width="1.67493"/>
<path d="M668.542 916.112L709.448 916.112L729.901 951.538L709.448 986.964H668.542L648.089 951.538L668.542 916.112Z" stroke="#5D5FEF" stroke-width="1.67493"/>
<path d="M810.074 29.2344L850.98 29.2344L871.433 64.6604L850.98 100.086H810.074L789.62 64.6604L810.074 29.2344Z" stroke="#5D5FEF" stroke-width="1.67493"/>
<path d="M951.605 29.2344L992.511 29.2344L1012.96 64.6604L992.511 100.086H951.605L931.152 64.6604L951.605 29.2344Z" stroke="#5D5FEF" stroke-width="1.67493"/>
<path d="M1093.14 29.2344L1134.04 29.2344L1154.5 64.6604L1134.04 100.086H1093.14L1072.68 64.6604L1093.14 29.2344Z" stroke="#5D5FEF" stroke-width="1.67493"/>
<path d="M1234.67 29.2344L1275.58 29.2344L1296.03 64.6604L1275.58 100.086H1234.67L1214.22 64.6604L1234.67 29.2344Z" stroke="#5D5FEF" stroke-width="1.67493"/>
<path d="M1376.2 29.2344L1417.11 29.2344L1437.56 64.6604L1417.11 100.086H1376.2L1355.75 64.6604L1376.2 29.2344Z" stroke="#5D5FEF" stroke-width="1.67493"/>
<path d="M810.074 190.028L850.98 190.028L871.433 225.454L850.98 260.88H810.074L789.62 225.454L810.074 190.028Z" stroke="#5D5FEF" stroke-width="1.67493"/>
<path d="M951.605 190.028L992.511 190.028L1012.96 225.454L992.511 260.88H951.605L931.152 225.454L951.605 190.028Z" stroke="#5D5FEF" stroke-width="1.67493"/>
<path d="M1093.14 190.028L1134.04 190.028L1154.5 225.454L1134.04 260.88H1093.14L1072.68 225.454L1093.14 190.028Z" stroke="#5D5FEF" stroke-width="1.67493"/>
<path d="M1234.67 190.028L1275.58 190.028L1296.03 225.454L1275.58 260.88H1234.67L1214.22 225.454L1234.67 190.028Z" stroke="#5D5FEF" stroke-width="1.67493"/>
<path d="M1376.2 190.028L1417.11 190.028L1437.56 225.454L1417.11 260.88H1376.2L1355.75 225.454L1376.2 190.028Z" stroke="#5D5FEF" stroke-width="1.67493"/>
<path d="M810.074 350.822L850.98 350.822L871.433 386.248L850.98 421.674H810.074L789.62 386.248L810.074 350.822Z" stroke="#5D5FEF" stroke-width="1.67493"/>
<path d="M951.605 350.822L992.511 350.822L1012.96 386.248L992.511 421.674H951.605L931.152 386.248L951.605 350.822Z" stroke="#5D5FEF" stroke-width="1.67493"/>
<path d="M1093.14 350.822L1134.04 350.822L1154.5 386.248L1134.04 421.674H1093.14L1072.68 386.248L1093.14 350.822Z" stroke="#5D5FEF" stroke-width="1.67493"/>
<path d="M1234.67 350.822L1275.58 350.822L1296.03 386.248L1275.58 421.674H1234.67L1214.22 386.248L1234.67 350.822Z" stroke="#5D5FEF" stroke-width="1.67493"/>
<path d="M1376.2 350.822L1417.11 350.822L1437.56 386.248L1417.11 421.674H1376.2L1355.75 386.248L1376.2 350.822Z" stroke="#5D5FEF" stroke-width="1.67493"/>
<path d="M810.074 511.615L850.98 511.615L871.433 547.041L850.98 582.467H810.074L789.62 547.041L810.074 511.615Z" stroke="#5D5FEF" stroke-width="1.67493"/>
<path d="M951.605 511.615L992.511 511.615L1012.96 547.041L992.511 582.467H951.605L931.152 547.041L951.605 511.615Z" stroke="#5D5FEF" stroke-width="1.67493"/>
<path d="M1093.14 511.615L1134.04 511.615L1154.5 547.041L1134.04 582.467H1093.14L1072.68 547.041L1093.14 511.615Z" stroke="#5D5FEF" stroke-width="1.67493"/>
<path d="M1234.67 511.615L1275.58 511.615L1296.03 547.041L1275.58 582.467H1234.67L1214.22 547.041L1234.67 511.615Z" stroke="#5D5FEF" stroke-width="1.67493"/>
<path d="M1376.2 511.615L1417.11 511.615L1437.56 547.041L1417.11 582.467H1376.2L1355.75 547.041L1376.2 511.615Z" stroke="#5D5FEF" stroke-width="1.67493"/>
<path d="M810.074 672.409L850.98 672.409L871.433 707.835L850.98 743.261H810.074L789.62 707.835L810.074 672.409Z" stroke="#5D5FEF" stroke-width="1.67493"/>
<path d="M810.074 753.643L850.98 753.643L871.433 789.069L850.98 824.495H810.074L789.62 789.069L810.074 753.643Z" stroke="#5D5FEF" stroke-width="1.67493"/>
<path d="M810.074 834.878L850.98 834.878L871.433 870.303L850.98 905.729H810.074L789.62 870.303L810.074 834.878Z" stroke="#5D5FEF" stroke-width="1.67493"/>
<path d="M810.074 916.112L850.98 916.112L871.433 951.538L850.98 986.964H810.074L789.62 951.538L810.074 916.112Z" stroke="#5D5FEF" stroke-width="1.67493"/>
<path d="M951.605 672.409L992.511 672.409L1012.96 707.835L992.511 743.261H951.605L931.152 707.835L951.605 672.409Z" stroke="#5D5FEF" stroke-width="1.67493"/>
<path d="M951.605 753.643L992.511 753.643L1012.96 789.069L992.511 824.495H951.605L931.152 789.069L951.605 753.643Z" stroke="#5D5FEF" stroke-width="1.67493"/>
<path d="M951.605 834.878L992.511 834.878L1012.96 870.303L992.511 905.729H951.605L931.152 870.303L951.605 834.878Z" stroke="#5D5FEF" stroke-width="1.67493"/>
<path d="M951.605 916.112L992.511 916.112L1012.96 951.538L992.511 986.964H951.605L931.152 951.538L951.605 916.112Z" stroke="#5D5FEF" stroke-width="1.67493"/>
<path d="M1093.14 672.409L1134.04 672.409L1154.5 707.835L1134.04 743.261H1093.14L1072.68 707.835L1093.14 672.409Z" stroke="#5D5FEF" stroke-width="1.67493"/>
<path d="M1093.14 753.643L1134.04 753.643L1154.5 789.069L1134.04 824.495H1093.14L1072.68 789.069L1093.14 753.643Z" stroke="#5D5FEF" stroke-width="1.67493"/>
<path d="M1093.14 834.878L1134.04 834.878L1154.5 870.303L1134.04 905.729H1093.14L1072.68 870.303L1093.14 834.878Z" stroke="#5D5FEF" stroke-width="1.67493"/>
<path d="M1093.14 916.112L1134.04 916.112L1154.5 951.538L1134.04 986.964H1093.14L1072.68 951.538L1093.14 916.112Z" stroke="#5D5FEF" stroke-width="1.67493"/>
<path d="M1234.67 672.409L1275.58 672.409L1296.03 707.835L1275.58 743.261H1234.67L1214.22 707.835L1234.67 672.409Z" stroke="#5D5FEF" stroke-width="1.67493"/>
<path d="M1234.67 753.643L1275.58 753.643L1296.03 789.069L1275.58 824.495H1234.67L1214.22 789.069L1234.67 753.643Z" stroke="#5D5FEF" stroke-width="1.67493"/>
<path d="M1234.67 834.878L1275.58 834.878L1296.03 870.303L1275.58 905.729H1234.67L1214.22 870.303L1234.67 834.878Z" stroke="#5D5FEF" stroke-width="1.67493"/>
<path d="M1234.67 916.112L1275.58 916.112L1296.03 951.538L1275.58 986.964H1234.67L1214.22 951.538L1234.67 916.112Z" stroke="#5D5FEF" stroke-width="1.67493"/>
<path d="M1376.2 672.409L1417.11 672.409L1437.56 707.835L1417.11 743.261H1376.2L1355.75 707.835L1376.2 672.409Z" stroke="#5D5FEF" stroke-width="1.67493"/>
<path d="M1376.2 753.643L1417.11 753.643L1437.56 789.069L1417.11 824.495H1376.2L1355.75 789.069L1376.2 753.643Z" stroke="#5D5FEF" stroke-width="1.67493"/>
<path d="M1376.2 834.878L1417.11 834.878L1437.56 870.303L1417.11 905.729H1376.2L1355.75 870.303L1376.2 834.878Z" stroke="#5D5FEF" stroke-width="1.67493"/>
<path d="M1376.2 916.112L1417.11 916.112L1437.56 951.538L1417.11 986.964H1376.2L1355.75 951.538L1376.2 916.112Z" stroke="#5D5FEF" stroke-width="1.67493"/>
</g>
</svg>
