<svg width="28" height="22" viewBox="0 0 28 22" fill="none" xmlns="http://www.w3.org/2000/svg">
<path d="M3.82868 4.68501C3.84502 4.52269 3.82314 4.35881 3.7648 4.20647C3.70645 4.05412 3.61326 3.91755 3.49268 3.80767L1.00202 0.785008V0.333008H8.73268L14.7087 13.5397L19.962 0.333008H27.3327V0.785008L25.2034 2.83967C25.1131 2.90934 25.0435 3.0022 25.0019 3.10834C24.9604 3.21449 24.9484 3.32993 24.9674 3.44234V18.5543C24.9484 18.6667 24.9604 18.7822 25.0019 18.8883C25.0435 18.9945 25.1131 19.0873 25.2034 19.157L27.2833 21.213V21.6663H16.8247V21.2143L18.9793 19.1077C19.1913 18.8943 19.1913 18.8317 19.1913 18.5063V6.29034L13.202 21.6157H12.394L5.42068 6.29034V16.5623C5.36335 16.993 5.50602 17.429 5.80735 17.741L8.60868 21.165V21.6157H0.666016V21.165L3.46602 17.741C3.61417 17.5864 3.72412 17.3993 3.78709 17.1947C3.85006 16.99 3.8643 16.7735 3.82868 16.5623V4.68501Z" fill="url(#paint0_linear_411_803)"/>
<defs>
<linearGradient id="paint0_linear_411_803" x1="13.9993" y1="0.333008" x2="13.9993" y2="21.6663" gradientUnits="userSpaceOnUse">
<stop stop-color="#8B008C"/>
<stop offset="1" stop-color="#F83A67"/>
</linearGradient>
</defs>
</svg>
