<svg width="149" height="51" viewBox="0 0 149 51" fill="none" xmlns="http://www.w3.org/2000/svg">
<g filter="url(#filter0_d_411_1199)">
<path d="M13.1328 41.9995H8.82031V8.24951H14.8672L35.375 31.4292V8.24951H39.6641V41.9995H33.6172L13.1328 18.8433V41.9995ZM52.7891 29.1558C53.7578 29.3745 54.7266 29.5464 55.6953 29.6714C56.6641 29.7964 57.6406 29.8589 58.625 29.8589C59.6562 29.8589 60.6094 29.7651 61.4844 29.5776C62.375 29.3745 63.1406 29.0464 63.7812 28.5933C64.4375 28.1245 64.9531 27.5073 65.3281 26.7417C65.7031 25.9761 65.8906 25.0229 65.8906 23.8823C65.8906 22.9604 65.7656 22.1167 65.5156 21.3511C65.2656 20.5854 64.8906 19.9292 64.3906 19.3823C63.9062 18.8354 63.3047 18.4136 62.5859 18.1167C61.8672 17.8042 61.0312 17.6479 60.0781 17.6479C59.1875 17.6479 58.3828 17.812 57.6641 18.1401C56.9609 18.4683 56.3359 18.9136 55.7891 19.4761C55.2578 20.0229 54.7969 20.6636 54.4062 21.3979C54.0312 22.1323 53.7188 22.8979 53.4688 23.6948C53.2188 24.4917 53.0391 25.2964 52.9297 26.1089C52.8203 26.9214 52.7656 27.687 52.7656 28.4058C52.7656 28.5308 52.7656 28.6558 52.7656 28.7808C52.7656 28.9058 52.7734 29.0308 52.7891 29.1558ZM72.3125 23.812C72.3125 24.9214 72.1328 25.9136 71.7734 26.7886C71.4141 27.6479 70.9219 28.4058 70.2969 29.062C69.6875 29.7183 68.9766 30.2729 68.1641 30.7261C67.3516 31.1792 66.4844 31.5542 65.5625 31.8511C64.6406 32.1323 63.6875 32.3354 62.7031 32.4604C61.7344 32.5854 60.7891 32.6479 59.8672 32.6479C58.6953 32.6479 57.5391 32.5698 56.3984 32.4136C55.2578 32.2417 54.1328 31.9761 53.0234 31.6167C53.1953 32.6479 53.4688 33.6323 53.8438 34.5698C54.2188 35.4917 54.7188 36.3042 55.3438 37.0073C55.9688 37.6948 56.7344 38.2417 57.6406 38.6479C58.5625 39.0542 59.6484 39.2573 60.8984 39.2573C61.7266 39.2573 62.5156 39.1323 63.2656 38.8823C64.0156 38.6323 64.7031 38.2808 65.3281 37.8276C65.9531 37.3745 66.5 36.8354 66.9688 36.2104C67.4531 35.5854 67.8438 34.8901 68.1406 34.1245L71.5625 35.3901C71.0469 36.6245 70.3359 37.6948 69.4297 38.6011C68.5391 39.4917 67.5234 40.2339 66.3828 40.8276C65.2578 41.4058 64.0547 41.8354 62.7734 42.1167C61.5078 42.3979 60.25 42.5386 59 42.5386C56.9375 42.5386 55.0312 42.1948 53.2812 41.5073C51.5312 40.8042 50.0234 39.8276 48.7578 38.5776C47.4922 37.3276 46.5 35.8354 45.7812 34.1011C45.0625 32.3667 44.7031 30.4683 44.7031 28.4058C44.7031 26.3433 45.0625 24.4448 45.7812 22.7104C46.5 20.9761 47.4922 19.4839 48.7578 18.2339C50.0234 16.9839 51.5312 16.0151 53.2812 15.3276C55.0312 14.6245 56.9375 14.2729 59 14.2729C60 14.2729 61.0234 14.3433 62.0703 14.4839C63.1172 14.6245 64.1328 14.8511 65.1172 15.1636C66.1016 15.4604 67.0312 15.8511 67.9062 16.3354C68.7812 16.8198 69.5391 17.4214 70.1797 18.1401C70.8359 18.8433 71.3516 19.6636 71.7266 20.6011C72.1172 21.5386 72.3125 22.6089 72.3125 23.812ZM89.4453 41.9995H82.3203L74.9141 14.9292H82.8359L87.4766 33.9136L91.3438 14.9292H98.4688L103.203 34.4292L107.773 14.9292H113.258L105.055 41.9995H97.9297L93.9219 25.5464L89.4453 41.9995ZM140.539 33.3511C140.539 34.5386 140.367 35.5933 140.023 36.5151C139.68 37.437 139.211 38.2417 138.617 38.9292C138.023 39.6011 137.32 40.1714 136.508 40.6401C135.695 41.0933 134.82 41.4604 133.883 41.7417C132.961 42.0229 131.992 42.2261 130.977 42.3511C129.961 42.4761 128.953 42.5386 127.953 42.5386C126.609 42.5386 125.422 42.4526 124.391 42.2808C123.359 42.1089 122.375 41.8354 121.438 41.4604C120.5 41.0698 119.562 40.5698 118.625 39.9604C117.703 39.3511 116.672 38.6089 115.531 37.7339L120.148 33.9604C120.57 34.7573 121.125 35.4839 121.812 36.1401C122.516 36.7808 123.242 37.3354 123.992 37.8042C124.742 38.2729 125.469 38.6323 126.172 38.8823C126.875 39.1323 127.445 39.2573 127.883 39.2573C128.242 39.2573 128.648 39.2495 129.102 39.2339C129.555 39.2026 130.016 39.1558 130.484 39.0933C130.953 39.0151 131.414 38.9058 131.867 38.7651C132.32 38.6245 132.719 38.437 133.062 38.2026C133.422 37.9526 133.703 37.6479 133.906 37.2886C134.125 36.9136 134.234 36.4683 134.234 35.9526C134.234 35.4214 134.094 34.9604 133.812 34.5698C133.547 34.1636 133.195 33.812 132.758 33.5151C132.32 33.2183 131.82 32.9683 131.258 32.7651C130.695 32.562 130.125 32.3823 129.547 32.2261C128.984 32.0698 128.438 31.937 127.906 31.8276C127.375 31.7026 126.914 31.5854 126.523 31.4761C125.805 31.2729 125.047 31.0698 124.25 30.8667C123.453 30.6479 122.664 30.4058 121.883 30.1401C121.102 29.8589 120.352 29.5308 119.633 29.1558C118.93 28.7808 118.305 28.3354 117.758 27.8198C117.227 27.2886 116.797 26.6714 116.469 25.9683C116.156 25.2495 116 24.4136 116 23.4604C116 21.7104 116.344 20.2495 117.031 19.0776C117.734 17.8901 118.656 16.9448 119.797 16.2417C120.938 15.5229 122.234 15.0151 123.688 14.7183C125.141 14.4214 126.617 14.2729 128.117 14.2729C129.148 14.2729 130.234 14.3823 131.375 14.6011C132.516 14.8042 133.625 15.1167 134.703 15.5386C135.781 15.9448 136.789 16.4448 137.727 17.0386C138.664 17.6323 139.445 18.312 140.07 19.0776L135.453 22.8745C135.109 21.937 134.656 21.1323 134.094 20.4604C133.547 19.7886 132.945 19.2417 132.289 18.8198C131.648 18.3823 130.984 18.062 130.297 17.8589C129.625 17.6558 129 17.5542 128.422 17.5542C127.859 17.5542 127.227 17.5776 126.523 17.6245C125.82 17.6714 125.156 17.8042 124.531 18.0229C123.922 18.2417 123.398 18.5776 122.961 19.0308C122.539 19.4683 122.328 20.0776 122.328 20.8589C122.328 21.4214 122.453 21.9058 122.703 22.312C122.969 22.7026 123.312 23.0464 123.734 23.3433C124.156 23.6245 124.633 23.8667 125.164 24.0698C125.711 24.2573 126.266 24.4292 126.828 24.5854C127.391 24.7261 127.938 24.8511 128.469 24.9604C129 25.0698 129.477 25.187 129.898 25.312C130.617 25.5151 131.375 25.7261 132.172 25.9448C132.984 26.1479 133.781 26.3901 134.562 26.6714C135.344 26.937 136.094 27.2573 136.812 27.6323C137.547 27.9917 138.188 28.437 138.734 28.9683C139.281 29.4995 139.719 30.1245 140.047 30.8433C140.375 31.5464 140.539 32.3823 140.539 33.3511Z" fill="#5D5FEF"/>
</g>
<defs>
<filter id="filter0_d_411_1199" x="0.820312" y="0.249512" width="147.719" height="50.2891" filterUnits="userSpaceOnUse" color-interpolation-filters="sRGB">
<feFlood flood-opacity="0" result="BackgroundImageFix"/>
<feColorMatrix in="SourceAlpha" type="matrix" values="0 0 0 0 0 0 0 0 0 0 0 0 0 0 0 0 0 0 127 0" result="hardAlpha"/>
<feMorphology radius="4" operator="dilate" in="SourceAlpha" result="effect1_dropShadow_411_1199"/>
<feOffset/>
<feGaussianBlur stdDeviation="2"/>
<feComposite in2="hardAlpha" operator="out"/>
<feColorMatrix type="matrix" values="0 0 0 0 0.0416667 0 0 0 0 0.808333 0 0 0 0 1 0 0 0 0.3 0"/>
<feBlend mode="normal" in2="BackgroundImageFix" result="effect1_dropShadow_411_1199"/>
<feBlend mode="normal" in="SourceGraphic" in2="effect1_dropShadow_411_1199" result="shape"/>
</filter>
</defs>
</svg>
