<svg width="599" height="59" viewBox="0 0 599 59" fill="none" xmlns="http://www.w3.org/2000/svg">
<g filter="url(#filter0_d_411_891)">
<path d="M38.4766 32.6875C38.4766 34.1406 38.2891 35.4219 37.9141 36.5312C37.5547 37.6406 37.0391 38.6016 36.3672 39.4141C35.7109 40.2266 34.9297 40.9062 34.0234 41.4531C33.1172 42 32.125 42.4375 31.0469 42.7656C29.9844 43.0938 28.8516 43.3281 27.6484 43.4688C26.4609 43.6094 25.25 43.6797 24.0156 43.6797C22.3906 43.6797 20.8906 43.5547 19.5156 43.3047C18.1406 43.0703 16.8438 42.6953 15.625 42.1797C14.4219 41.6484 13.2578 40.9688 12.1328 40.1406C11.0234 39.3125 9.91406 38.3047 8.80469 37.1172L13.5859 32.2656C14.0234 33.3438 14.625 34.3438 15.3906 35.2656C16.1562 36.1719 16.9922 36.9531 17.8984 37.6094C18.8203 38.2656 19.7734 38.7812 20.7578 39.1562C21.7422 39.5312 22.6719 39.7188 23.5469 39.7188C24.5781 39.7188 25.5469 39.6484 26.4531 39.5078C27.3594 39.3516 28.1484 39.1016 28.8203 38.7578C29.4922 38.4141 30.0156 37.9609 30.3906 37.3984C30.7812 36.8203 30.9766 36.1016 30.9766 35.2422C30.9766 34.5859 30.8281 34.0234 30.5312 33.5547C30.2344 33.0859 29.8438 32.6875 29.3594 32.3594C28.8906 32.0156 28.3516 31.7266 27.7422 31.4922C27.1328 31.2578 26.5078 31.0625 25.8672 30.9062C25.2422 30.7344 24.625 30.5859 24.0156 30.4609C23.4062 30.3203 22.8672 30.1797 22.3984 30.0391C21.4766 29.7734 20.5156 29.4922 19.5156 29.1953C18.5156 28.8828 17.5312 28.5312 16.5625 28.1406C15.5938 27.75 14.6719 27.3047 13.7969 26.8047C12.9375 26.2891 12.1797 25.6875 11.5234 25C10.8672 24.2969 10.3438 23.4922 9.95312 22.5859C9.5625 21.6641 9.36719 20.6094 9.36719 19.4219C9.36719 18 9.53906 16.7422 9.88281 15.6484C10.2422 14.5391 10.7422 13.5781 11.3828 12.7656C12.0234 11.9531 12.7812 11.2734 13.6562 10.7266C14.5312 10.1641 15.4922 9.71875 16.5391 9.39062C17.5859 9.04688 18.6953 8.80469 19.8672 8.66406C21.0547 8.50781 22.2656 8.42969 23.5 8.42969C25.1875 8.42969 26.7188 8.58594 28.0938 8.89844C29.4844 9.21094 30.7656 9.65625 31.9375 10.2344C33.1094 10.8125 34.1797 11.5078 35.1484 12.3203C36.1328 13.1172 37.0547 14.0078 37.9141 14.9922L33.1328 19.8438C32.7578 18.7188 32.2344 17.7031 31.5625 16.7969C30.9062 15.8906 30.1719 15.1172 29.3594 14.4766C28.5469 13.8203 27.6953 13.3203 26.8047 12.9766C25.9141 12.6172 25.0547 12.4375 24.2266 12.4375C23.1484 12.4375 22.1562 12.5156 21.25 12.6719C20.3438 12.8125 19.5625 13.0547 18.9062 13.3984C18.2656 13.7266 17.7656 14.1797 17.4062 14.7578C17.0469 15.3203 16.8672 16.0234 16.8672 16.8672C16.8672 17.5391 17 18.1094 17.2656 18.5781C17.5312 19.0469 17.8828 19.4453 18.3203 19.7734C18.7734 20.1016 19.2812 20.375 19.8438 20.5938C20.4062 20.7969 20.9844 20.9766 21.5781 21.1328C22.1875 21.2891 22.7812 21.4297 23.3594 21.5547C23.9531 21.6641 24.4922 21.7891 24.9766 21.9297C25.9141 22.1953 26.8984 22.4766 27.9297 22.7734C28.9609 23.0703 29.9766 23.4219 30.9766 23.8281C31.9766 24.2188 32.9297 24.6719 33.8359 25.1875C34.7422 25.7031 35.5391 26.3203 36.2266 27.0391C36.9141 27.7422 37.4609 28.5625 37.8672 29.5C38.2734 30.4219 38.4766 31.4844 38.4766 32.6875ZM59.6172 43H50.3125V13.5625H41.125V9.25H68.8047V13.5625H59.6172V43ZM82.8906 43H73.5859V9.25H90.1797C91.7422 9.25 93.25 9.4375 94.7031 9.8125C96.1562 10.1719 97.4375 10.75 98.5469 11.5469C99.6719 12.3281 100.562 13.3438 101.219 14.5938C101.891 15.8438 102.227 17.3594 102.227 19.1406C102.227 20.5312 101.93 21.8438 101.336 23.0781C100.758 24.2969 99.9766 25.3906 98.9922 26.3594C98.0234 27.3125 96.9062 28.1094 95.6406 28.75C94.375 29.375 93.0625 29.7891 91.7031 29.9922C92.3125 31.0234 92.9453 32 93.6016 32.9219C94.2734 33.8438 94.9453 34.7109 95.6172 35.5234C96.3047 36.3203 96.9844 37.0625 97.6562 37.75C98.3281 38.4219 98.9688 39.0391 99.5781 39.6016C101.016 40.9141 102.438 42.0469 103.844 43H92.2422C91.3047 42.1094 90.4141 41.0391 89.5703 39.7891C88.8516 38.7266 88.125 37.4141 87.3906 35.8516C86.6719 34.2734 86.1172 32.4531 85.7266 30.3906H82.8906V43ZM92.7812 19.1406C92.7812 16.875 92.2266 15.2109 91.1172 14.1484C90.0234 13.0859 88.375 12.5547 86.1719 12.5547H82.8906V27.2031H86.1719C87.3438 27.2031 88.3438 26.9844 89.1719 26.5469C90.0156 26.0938 90.7031 25.5 91.2344 24.7656C91.7656 24.0156 92.1562 23.1562 92.4062 22.1875C92.6562 21.2188 92.7812 20.2031 92.7812 19.1406ZM140.359 26.8516V27.2969C140.328 28.6094 140.188 29.9688 139.938 31.375C139.703 32.7812 139.367 34.1875 138.93 35.5938C138.492 37 137.969 38.3906 137.359 39.7656C136.75 41.1406 136.062 42.4531 135.297 43.7031C134.547 44.9688 133.734 46.1484 132.859 47.2422C131.984 48.3516 131.062 49.3281 130.094 50.1719L126.602 48.1562C127.148 47.2344 127.641 46.2266 128.078 45.1328C128.531 44.0547 128.938 42.9219 129.297 41.7344C129.656 40.5469 129.961 39.3281 130.211 38.0781C130.477 36.8281 130.695 35.5859 130.867 34.3516C131.039 33.1172 131.164 31.9062 131.242 30.7188C131.336 29.5156 131.383 28.375 131.383 27.2969C131.383 26.4531 131.375 25.5 131.359 24.4375C131.359 23.3594 131.297 22.2656 131.172 21.1562C131.062 20.0469 130.875 18.9688 130.609 17.9219C130.344 16.8594 129.945 15.9141 129.414 15.0859C128.898 14.2578 128.227 13.5938 127.398 13.0938C126.586 12.5938 125.57 12.3438 124.352 12.3438C123.273 12.3438 122.344 12.5312 121.562 12.9062C120.797 13.2656 120.141 13.7578 119.594 14.3828C119.062 14.9922 118.633 15.7031 118.305 16.5156C117.992 17.3281 117.742 18.1875 117.555 19.0938C117.383 19.9844 117.266 20.8906 117.203 21.8125C117.156 22.7188 117.133 23.5781 117.133 24.3906V30.9297H127.234V34.7969H117.133V43H107.828V25.8438C107.828 23.3906 108.219 21.1094 109 19C109.781 16.8906 110.883 15.0625 112.305 13.5156C113.742 11.9531 115.461 10.7344 117.461 9.85938C119.477 8.96875 121.719 8.52344 124.188 8.52344C125.859 8.52344 127.422 8.76562 128.875 9.25C130.344 9.71875 131.68 10.375 132.883 11.2188C134.086 12.0469 135.156 13.0391 136.094 14.1953C137.047 15.3359 137.836 16.5859 138.461 17.9453C139.102 19.3047 139.586 20.7422 139.914 22.2578C140.242 23.7734 140.391 25.3047 140.359 26.8516ZM160.305 43H151V13.5625H141.812V9.25H169.492V13.5625H160.305V43ZM198.508 43H174.273V9.25H198.508V13.5625H183.578V23.9922H195.109V28.2812H183.578V38.6875H198.508V43ZM234.133 17.6172L230.125 19.3047C229.812 18.2891 229.391 17.3594 228.859 16.5156C228.344 15.6719 227.719 14.9531 226.984 14.3594C226.266 13.75 225.445 13.2812 224.523 12.9531C223.602 12.6094 222.594 12.4375 221.5 12.4375C220.328 12.4375 219.25 12.6328 218.266 13.0234C217.297 13.4141 216.422 13.9453 215.641 14.6172C214.875 15.2734 214.203 16.0469 213.625 16.9375C213.047 17.8281 212.562 18.7812 212.172 19.7969C211.797 20.7969 211.508 21.8359 211.305 22.9141C211.117 23.9922 211.023 25.0469 211.023 26.0781C211.023 27.7188 211.211 29.3516 211.586 30.9766C211.977 32.6016 212.586 34.0625 213.414 35.3594C214.258 36.6562 215.344 37.7109 216.672 38.5234C218 39.3203 219.609 39.7188 221.5 39.7188C222.531 39.7188 223.336 39.4922 223.914 39.0391C224.492 38.5703 224.781 37.7578 224.781 36.6016V26.2422H234.086V43H231.391L229.75 40.3516C228.25 41.4922 226.594 42.3359 224.781 42.8828C222.984 43.4141 221.148 43.6797 219.273 43.6797C217.617 43.6797 216.023 43.4766 214.492 43.0703C212.977 42.6641 211.562 42.0859 210.25 41.3359C208.938 40.5859 207.742 39.6797 206.664 38.6172C205.602 37.5547 204.688 36.375 203.922 35.0781C203.172 33.7812 202.586 32.375 202.164 30.8594C201.758 29.3281 201.555 27.7344 201.555 26.0781C201.555 24.4219 201.758 22.8359 202.164 21.3203C202.586 19.7891 203.172 18.375 203.922 17.0781C204.688 15.7656 205.602 14.5781 206.664 13.5156C207.742 12.4531 208.938 11.5469 210.25 10.7969C211.562 10.0469 212.977 9.46875 214.492 9.0625C216.023 8.65625 217.617 8.45312 219.273 8.45312C220.867 8.45312 222.422 8.64062 223.938 9.01562C225.469 9.39062 226.891 9.96094 228.203 10.7266C229.516 11.4766 230.68 12.4297 231.695 13.5859C232.727 14.7266 233.539 16.0703 234.133 17.6172ZM250 43H240.695V9.25H250V43ZM288.32 17.6172L284.312 19.3047C284 18.2891 283.578 17.3594 283.047 16.5156C282.531 15.6719 281.906 14.9531 281.172 14.3594C280.453 13.75 279.633 13.2812 278.711 12.9531C277.789 12.6094 276.781 12.4375 275.688 12.4375C274.516 12.4375 273.438 12.6328 272.453 13.0234C271.484 13.3984 270.609 13.9219 269.828 14.5938C269.062 15.2656 268.391 16.0469 267.812 16.9375C267.234 17.8281 266.75 18.7812 266.359 19.7969C265.969 20.7969 265.68 21.8359 265.492 22.9141C265.305 23.9922 265.211 25.0469 265.211 26.0781C265.211 27.7188 265.398 29.3516 265.773 30.9766C266.164 32.6016 266.773 34.0625 267.602 35.3594C268.445 36.6562 269.531 37.7109 270.859 38.5234C272.188 39.3203 273.797 39.7188 275.688 39.7188C276.688 39.7188 277.633 39.5547 278.523 39.2266C279.414 38.8828 280.219 38.4219 280.938 37.8438C281.672 37.25 282.312 36.5547 282.859 35.7578C283.406 34.9609 283.844 34.1016 284.172 33.1797L288.227 34.7969C287.633 36.2812 286.82 37.5859 285.789 38.7109C284.758 39.8203 283.578 40.7422 282.25 41.4766C280.938 42.2109 279.523 42.7578 278.008 43.1172C276.508 43.4922 274.992 43.6797 273.461 43.6797C271.805 43.6797 270.211 43.4766 268.68 43.0703C267.164 42.6641 265.75 42.0859 264.438 41.3359C263.125 40.5859 261.93 39.6797 260.852 38.6172C259.789 37.5547 258.875 36.375 258.109 35.0781C257.359 33.7812 256.773 32.375 256.352 30.8594C255.945 29.3281 255.742 27.7344 255.742 26.0781C255.742 24.4219 255.945 22.8359 256.352 21.3203C256.773 19.7891 257.359 18.375 258.109 17.0781C258.875 15.7656 259.789 14.5781 260.852 13.5156C261.93 12.4531 263.125 11.5469 264.438 10.7969C265.75 10.0469 267.164 9.46875 268.68 9.0625C270.211 8.65625 271.805 8.45312 273.461 8.45312C275.055 8.45312 276.609 8.64062 278.125 9.01562C279.656 9.39062 281.078 9.96094 282.391 10.7266C283.703 11.4766 284.867 12.4297 285.883 13.5859C286.914 14.7266 287.727 16.0703 288.32 17.6172ZM316.656 43H307.352V9.25H316.656V43ZM328.633 43H324.32V9.25H330.367L350.875 32.4297V9.25H355.164V43H349.117L328.633 19.8438V43ZM380.289 43H371.781L359.172 9.25H368.664L378.016 36.4141L386.477 9.25H392.242L380.289 43ZM420.555 43H396.32V9.25H420.555V13.5625H405.625V23.9922H417.156V28.2812H405.625V38.6875H420.555V43ZM453.977 32.6875C453.977 34.1406 453.789 35.4219 453.414 36.5312C453.055 37.6406 452.539 38.6016 451.867 39.4141C451.211 40.2266 450.43 40.9062 449.523 41.4531C448.617 42 447.625 42.4375 446.547 42.7656C445.484 43.0938 444.352 43.3281 443.148 43.4688C441.961 43.6094 440.75 43.6797 439.516 43.6797C437.891 43.6797 436.391 43.5547 435.016 43.3047C433.641 43.0703 432.344 42.6953 431.125 42.1797C429.922 41.6484 428.758 40.9688 427.633 40.1406C426.523 39.3125 425.414 38.3047 424.305 37.1172L429.086 32.2656C429.523 33.3438 430.125 34.3438 430.891 35.2656C431.656 36.1719 432.492 36.9531 433.398 37.6094C434.32 38.2656 435.273 38.7812 436.258 39.1562C437.242 39.5312 438.172 39.7188 439.047 39.7188C440.078 39.7188 441.047 39.6484 441.953 39.5078C442.859 39.3516 443.648 39.1016 444.32 38.7578C444.992 38.4141 445.516 37.9609 445.891 37.3984C446.281 36.8203 446.477 36.1016 446.477 35.2422C446.477 34.5859 446.328 34.0234 446.031 33.5547C445.734 33.0859 445.344 32.6875 444.859 32.3594C444.391 32.0156 443.852 31.7266 443.242 31.4922C442.633 31.2578 442.008 31.0625 441.367 30.9062C440.742 30.7344 440.125 30.5859 439.516 30.4609C438.906 30.3203 438.367 30.1797 437.898 30.0391C436.977 29.7734 436.016 29.4922 435.016 29.1953C434.016 28.8828 433.031 28.5312 432.062 28.1406C431.094 27.75 430.172 27.3047 429.297 26.8047C428.438 26.2891 427.68 25.6875 427.023 25C426.367 24.2969 425.844 23.4922 425.453 22.5859C425.062 21.6641 424.867 20.6094 424.867 19.4219C424.867 18 425.039 16.7422 425.383 15.6484C425.742 14.5391 426.242 13.5781 426.883 12.7656C427.523 11.9531 428.281 11.2734 429.156 10.7266C430.031 10.1641 430.992 9.71875 432.039 9.39062C433.086 9.04688 434.195 8.80469 435.367 8.66406C436.555 8.50781 437.766 8.42969 439 8.42969C440.688 8.42969 442.219 8.58594 443.594 8.89844C444.984 9.21094 446.266 9.65625 447.438 10.2344C448.609 10.8125 449.68 11.5078 450.648 12.3203C451.633 13.1172 452.555 14.0078 453.414 14.9922L448.633 19.8438C448.258 18.7188 447.734 17.7031 447.062 16.7969C446.406 15.8906 445.672 15.1172 444.859 14.4766C444.047 13.8203 443.195 13.3203 442.305 12.9766C441.414 12.6172 440.555 12.4375 439.727 12.4375C438.648 12.4375 437.656 12.5156 436.75 12.6719C435.844 12.8125 435.062 13.0547 434.406 13.3984C433.766 13.7266 433.266 14.1797 432.906 14.7578C432.547 15.3203 432.367 16.0234 432.367 16.8672C432.367 17.5391 432.5 18.1094 432.766 18.5781C433.031 19.0469 433.383 19.4453 433.82 19.7734C434.273 20.1016 434.781 20.375 435.344 20.5938C435.906 20.7969 436.484 20.9766 437.078 21.1328C437.688 21.2891 438.281 21.4297 438.859 21.5547C439.453 21.6641 439.992 21.7891 440.477 21.9297C441.414 22.1953 442.398 22.4766 443.43 22.7734C444.461 23.0703 445.477 23.4219 446.477 23.8281C447.477 24.2188 448.43 24.6719 449.336 25.1875C450.242 25.7031 451.039 26.3203 451.727 27.0391C452.414 27.7422 452.961 28.5625 453.367 29.5C453.773 30.4219 453.977 31.4844 453.977 32.6875ZM475.117 43H465.812V13.5625H456.625V9.25H484.305V13.5625H475.117V43ZM522.766 26.0781C522.766 28.7969 522.297 31.25 521.359 33.4375C520.422 35.6094 519.125 37.4531 517.469 38.9688C515.812 40.4844 513.852 41.6484 511.586 42.4609C509.32 43.2734 506.867 43.6797 504.227 43.6797C501.586 43.6797 499.133 43.2734 496.867 42.4609C494.602 41.6484 492.641 40.4844 490.984 38.9688C489.328 37.4531 488.031 35.6094 487.094 33.4375C486.156 31.25 485.688 28.7969 485.688 26.0781C485.688 23.3125 486.148 20.8438 487.07 18.6719C488.008 16.4844 489.297 14.6406 490.938 13.1406C492.594 11.625 494.555 10.4688 496.82 9.67188C499.086 8.85938 501.555 8.45312 504.227 8.45312C506.898 8.45312 509.367 8.85938 511.633 9.67188C513.898 10.4688 515.852 11.625 517.492 13.1406C519.148 14.6406 520.438 16.4844 521.359 18.6719C522.297 20.8438 522.766 23.3125 522.766 26.0781ZM513.297 26.0781C513.297 25.0469 513.25 23.9922 513.156 22.9141C513.062 21.8359 512.891 20.7891 512.641 19.7734C512.391 18.7578 512.047 17.8047 511.609 16.9141C511.188 16.0234 510.641 15.25 509.969 14.5938C509.297 13.9219 508.484 13.3984 507.531 13.0234C506.594 12.6328 505.492 12.4375 504.227 12.4375C502.945 12.4375 501.828 12.6328 500.875 13.0234C499.922 13.3984 499.109 13.9141 498.438 14.5703C497.766 15.2266 497.219 16 496.797 16.8906C496.375 17.7812 496.039 18.7344 495.789 19.75C495.555 20.75 495.391 21.7969 495.297 22.8906C495.203 23.9688 495.156 25.0312 495.156 26.0781C495.156 27.1094 495.203 28.1641 495.297 29.2422C495.391 30.3203 495.562 31.3672 495.812 32.3828C496.062 33.3828 496.398 34.3281 496.82 35.2188C497.258 36.1094 497.812 36.8906 498.484 37.5625C499.156 38.2188 499.961 38.7422 500.898 39.1328C501.852 39.5234 502.961 39.7188 504.227 39.7188C505.461 39.7188 506.539 39.5234 507.461 39.1328C508.383 38.7266 509.18 38.1875 509.852 37.5156C510.523 36.8281 511.078 36.0391 511.516 35.1484C511.969 34.2422 512.32 33.2891 512.57 32.2891C512.836 31.2734 513.023 30.2344 513.133 29.1719C513.242 28.1094 513.297 27.0781 513.297 26.0781ZM537.859 43H528.555V9.25H545.148C546.711 9.25 548.219 9.4375 549.672 9.8125C551.125 10.1719 552.406 10.75 553.516 11.5469C554.641 12.3281 555.531 13.3438 556.188 14.5938C556.859 15.8438 557.195 17.3594 557.195 19.1406C557.195 20.5312 556.898 21.8438 556.305 23.0781C555.727 24.2969 554.945 25.3906 553.961 26.3594C552.992 27.3125 551.875 28.1094 550.609 28.75C549.344 29.375 548.031 29.7891 546.672 29.9922C547.281 31.0234 547.914 32 548.57 32.9219C549.242 33.8438 549.914 34.7109 550.586 35.5234C551.273 36.3203 551.953 37.0625 552.625 37.75C553.297 38.4219 553.938 39.0391 554.547 39.6016C555.984 40.9141 557.406 42.0469 558.812 43H547.211C546.273 42.1094 545.383 41.0391 544.539 39.7891C543.82 38.7266 543.094 37.4141 542.359 35.8516C541.641 34.2734 541.086 32.4531 540.695 30.3906H537.859V43ZM547.75 19.1406C547.75 16.875 547.195 15.2109 546.086 14.1484C544.992 13.0859 543.344 12.5547 541.141 12.5547H537.859V27.2031H541.141C542.312 27.2031 543.312 26.9844 544.141 26.5469C544.984 26.0938 545.672 25.5 546.203 24.7656C546.734 24.0156 547.125 23.1562 547.375 22.1875C547.625 21.2188 547.75 20.2031 547.75 19.1406ZM590.852 32.6875C590.852 34.1406 590.664 35.4219 590.289 36.5312C589.93 37.6406 589.414 38.6016 588.742 39.4141C588.086 40.2266 587.305 40.9062 586.398 41.4531C585.492 42 584.5 42.4375 583.422 42.7656C582.359 43.0938 581.227 43.3281 580.023 43.4688C578.836 43.6094 577.625 43.6797 576.391 43.6797C574.766 43.6797 573.266 43.5547 571.891 43.3047C570.516 43.0703 569.219 42.6953 568 42.1797C566.797 41.6484 565.633 40.9688 564.508 40.1406C563.398 39.3125 562.289 38.3047 561.18 37.1172L565.961 32.2656C566.398 33.3438 567 34.3438 567.766 35.2656C568.531 36.1719 569.367 36.9531 570.273 37.6094C571.195 38.2656 572.148 38.7812 573.133 39.1562C574.117 39.5312 575.047 39.7188 575.922 39.7188C576.953 39.7188 577.922 39.6484 578.828 39.5078C579.734 39.3516 580.523 39.1016 581.195 38.7578C581.867 38.4141 582.391 37.9609 582.766 37.3984C583.156 36.8203 583.352 36.1016 583.352 35.2422C583.352 34.5859 583.203 34.0234 582.906 33.5547C582.609 33.0859 582.219 32.6875 581.734 32.3594C581.266 32.0156 580.727 31.7266 580.117 31.4922C579.508 31.2578 578.883 31.0625 578.242 30.9062C577.617 30.7344 577 30.5859 576.391 30.4609C575.781 30.3203 575.242 30.1797 574.773 30.0391C573.852 29.7734 572.891 29.4922 571.891 29.1953C570.891 28.8828 569.906 28.5312 568.938 28.1406C567.969 27.75 567.047 27.3047 566.172 26.8047C565.312 26.2891 564.555 25.6875 563.898 25C563.242 24.2969 562.719 23.4922 562.328 22.5859C561.938 21.6641 561.742 20.6094 561.742 19.4219C561.742 18 561.914 16.7422 562.258 15.6484C562.617 14.5391 563.117 13.5781 563.758 12.7656C564.398 11.9531 565.156 11.2734 566.031 10.7266C566.906 10.1641 567.867 9.71875 568.914 9.39062C569.961 9.04688 571.07 8.80469 572.242 8.66406C573.43 8.50781 574.641 8.42969 575.875 8.42969C577.562 8.42969 579.094 8.58594 580.469 8.89844C581.859 9.21094 583.141 9.65625 584.312 10.2344C585.484 10.8125 586.555 11.5078 587.523 12.3203C588.508 13.1172 589.43 14.0078 590.289 14.9922L585.508 19.8438C585.133 18.7188 584.609 17.7031 583.938 16.7969C583.281 15.8906 582.547 15.1172 581.734 14.4766C580.922 13.8203 580.07 13.3203 579.18 12.9766C578.289 12.6172 577.43 12.4375 576.602 12.4375C575.523 12.4375 574.531 12.5156 573.625 12.6719C572.719 12.8125 571.938 13.0547 571.281 13.3984C570.641 13.7266 570.141 14.1797 569.781 14.7578C569.422 15.3203 569.242 16.0234 569.242 16.8672C569.242 17.5391 569.375 18.1094 569.641 18.5781C569.906 19.0469 570.258 19.4453 570.695 19.7734C571.148 20.1016 571.656 20.375 572.219 20.5938C572.781 20.7969 573.359 20.9766 573.953 21.1328C574.562 21.2891 575.156 21.4297 575.734 21.5547C576.328 21.6641 576.867 21.7891 577.352 21.9297C578.289 22.1953 579.273 22.4766 580.305 22.7734C581.336 23.0703 582.352 23.4219 583.352 23.8281C584.352 24.2188 585.305 24.6719 586.211 25.1875C587.117 25.7031 587.914 26.3203 588.602 27.0391C589.289 27.7422 589.836 28.5625 590.242 29.5C590.648 30.4219 590.852 31.4844 590.852 32.6875Z" fill="#5D5FEF"/>
</g>
<defs>
<filter id="filter0_d_411_891" x="0.804688" y="0.429688" width="598.047" height="57.7422" filterUnits="userSpaceOnUse" color-interpolation-filters="sRGB">
<feFlood flood-opacity="0" result="BackgroundImageFix"/>
<feColorMatrix in="SourceAlpha" type="matrix" values="0 0 0 0 0 0 0 0 0 0 0 0 0 0 0 0 0 0 127 0" result="hardAlpha"/>
<feMorphology radius="4" operator="dilate" in="SourceAlpha" result="effect1_dropShadow_411_891"/>
<feOffset/>
<feGaussianBlur stdDeviation="2"/>
<feComposite in2="hardAlpha" operator="out"/>
<feColorMatrix type="matrix" values="0 0 0 0 0.0416667 0 0 0 0 0.808333 0 0 0 0 1 0 0 0 0.3 0"/>
<feBlend mode="normal" in2="BackgroundImageFix" result="effect1_dropShadow_411_891"/>
<feBlend mode="normal" in="SourceGraphic" in2="effect1_dropShadow_411_891" result="shape"/>
</filter>
</defs>
</svg>
