<svg width="481" height="81" viewBox="0 0 481 81" fill="none" xmlns="http://www.w3.org/2000/svg">
<g filter="url(#filter0_d_411_1264)">
<path d="M26.7109 18.25C26.2891 19.5156 25.9219 20.8281 25.6094 22.1875C25.2969 23.5312 25.0391 24.8828 24.8359 26.2422C24.6328 27.5859 24.4766 28.9141 24.3672 30.2266C24.2734 31.5391 24.2266 32.7812 24.2266 33.9531C24.2266 34.8125 24.2266 35.7812 24.2266 36.8594C24.2422 37.9219 24.3047 39.0078 24.4141 40.1172C24.5391 41.2266 24.7344 42.3125 25 43.375C25.2656 44.4219 25.6562 45.3594 26.1719 46.1875C26.7031 47.0156 27.375 47.6797 28.1875 48.1797C29.0156 48.6797 30.0391 48.9297 31.2578 48.9297C32.3359 48.9297 33.2578 48.75 34.0234 48.3906C34.8047 48.0156 35.4609 47.5156 35.9922 46.8906C36.5391 46.2656 36.9688 45.5469 37.2812 44.7344C37.6094 43.9219 37.8594 43.0703 38.0312 42.1797C38.2188 41.2891 38.3359 40.3906 38.3828 39.4844C38.4453 38.5625 38.4766 37.6875 38.4766 36.8594V18.25H47.7812V35.4062C47.7812 37.8594 47.3906 40.1406 46.6094 42.25C45.8281 44.3594 44.7266 46.1953 43.3047 47.7578C41.8828 49.3047 40.1641 50.5234 38.1484 51.4141C36.1328 52.2891 33.8984 52.7266 31.4453 52.7266C29.7578 52.7266 28.1875 52.4844 26.7344 52C25.2812 51.5312 23.9453 50.8828 22.7266 50.0547C21.5234 49.2109 20.4453 48.2188 19.4922 47.0781C18.5547 45.9219 17.7656 44.6641 17.125 43.3047C16.5 41.9453 16.0234 40.5156 15.6953 39.0156C15.3672 37.5 15.2188 35.9688 15.25 34.4219V33.9531C15.2656 32.7031 15.3906 31.4141 15.625 30.0859C15.8594 28.7422 16.1719 27.3984 16.5625 26.0547C16.9688 24.7109 17.4531 23.3828 18.0156 22.0703C18.5781 20.7422 19.2031 19.4688 19.8906 18.25H26.7109ZM82.6328 38.4062C82.6328 40.375 82.3359 42.2188 81.7422 43.9375C81.1484 45.6562 80.2891 47.1562 79.1641 48.4375C78.0391 49.7031 76.6641 50.7031 75.0391 51.4375C73.4141 52.1719 71.5703 52.5391 69.5078 52.5391C67.9297 52.5391 66.4766 52.2344 65.1484 51.625C63.8359 51 62.7109 50.0469 61.7734 48.7656V64.4922H53.8516V24.9297H56.8984L60.4141 30.8125C60.7578 29.8281 61.2266 28.9375 61.8203 28.1406C62.4297 27.3281 63.125 26.6406 63.9062 26.0781C64.7031 25.5 65.5703 25.0547 66.5078 24.7422C67.4609 24.4297 68.4609 24.2734 69.5078 24.2734C71.5703 24.2734 73.4141 24.6406 75.0391 25.375C76.6641 26.1094 78.0391 27.1172 79.1641 28.3984C80.2891 29.6641 81.1484 31.1562 81.7422 32.875C82.3359 34.5938 82.6328 36.4375 82.6328 38.4062ZM74.5938 38.4062C74.5938 37.7188 74.5547 36.9922 74.4766 36.2266C74.4141 35.4453 74.2969 34.6719 74.125 33.9062C73.9531 33.1406 73.7109 32.4062 73.3984 31.7031C73.1016 31 72.7188 30.3828 72.25 29.8516C71.7812 29.3047 71.2109 28.875 70.5391 28.5625C69.8828 28.2344 69.1172 28.0703 68.2422 28.0703C67.3359 28.0703 66.5469 28.2266 65.875 28.5391C65.2188 28.8516 64.6484 29.2812 64.1641 29.8281C63.6953 30.3594 63.3047 30.9766 62.9922 31.6797C62.6953 32.3672 62.4609 33.0938 62.2891 33.8594C62.1172 34.625 61.9922 35.3984 61.9141 36.1797C61.8516 36.9609 61.8203 37.7031 61.8203 38.4062C61.8203 39.0312 61.8672 39.7266 61.9609 40.4922C62.0547 41.2422 62.2031 42 62.4062 42.7656C62.6094 43.5312 62.875 44.2734 63.2031 44.9922C63.5312 45.7109 63.9297 46.3516 64.3984 46.9141C64.8828 47.4766 65.4375 47.9297 66.0625 48.2734C66.7031 48.6016 67.4297 48.7656 68.2422 48.7656C69.1328 48.7656 69.9062 48.6094 70.5625 48.2969C71.2188 47.9688 71.7812 47.5391 72.25 47.0078C72.7188 46.4609 73.1016 45.8359 73.3984 45.1328C73.7109 44.4297 73.9531 43.6953 74.125 42.9297C74.2969 42.1641 74.4141 41.3906 74.4766 40.6094C74.5547 39.8281 74.5938 39.0938 74.5938 38.4062ZM112.727 31.6328L109.305 32.9922C108.758 31.2734 107.844 29.9531 106.562 29.0312C105.281 28.1094 103.742 27.6484 101.945 27.6484C100.977 27.6484 100.109 27.8047 99.3438 28.1172C98.5938 28.4141 97.9297 28.8281 97.3516 29.3594C96.7891 29.8906 96.3047 30.5078 95.8984 31.2109C95.5078 31.9141 95.1875 32.6641 94.9375 33.4609C94.6875 34.2578 94.5078 35.0859 94.3984 35.9453C94.2891 36.7891 94.2344 37.6094 94.2344 38.4062C94.2344 39.2656 94.2812 40.1328 94.375 41.0078C94.4688 41.8828 94.625 42.7266 94.8438 43.5391C95.0781 44.3359 95.3828 45.0859 95.7578 45.7891C96.1328 46.4766 96.6016 47.0781 97.1641 47.5938C97.7422 48.1094 98.4219 48.5156 99.2031 48.8125C100 49.1094 100.914 49.2578 101.945 49.2578C102.773 49.2578 103.562 49.1328 104.312 48.8828C105.062 48.6328 105.75 48.2812 106.375 47.8281C107 47.375 107.555 46.8359 108.039 46.2109C108.523 45.5859 108.906 44.8906 109.188 44.125L112.633 45.3906C112.117 46.625 111.43 47.6953 110.57 48.6016C109.727 49.4922 108.766 50.2344 107.688 50.8281C106.609 51.4062 105.453 51.8359 104.219 52.1172C102.984 52.3984 101.734 52.5391 100.469 52.5391C98.4219 52.5391 96.5234 52.1953 94.7734 51.5078C93.0234 50.8047 91.5078 49.8281 90.2266 48.5781C88.9609 47.3125 87.9688 45.8203 87.25 44.1016C86.5312 42.3672 86.1719 40.4688 86.1719 38.4062C86.1719 36.3281 86.5234 34.4219 87.2266 32.6875C87.9453 30.9531 88.9375 29.4609 90.2031 28.2109C91.4688 26.9609 92.9766 25.9922 94.7266 25.3047C96.4766 24.6172 98.3906 24.2734 100.469 24.2734C101.781 24.2734 103.062 24.4219 104.312 24.7188C105.562 25 106.719 25.4453 107.781 26.0547C108.859 26.6484 109.82 27.4062 110.664 28.3281C111.523 29.25 112.211 30.3516 112.727 31.6328ZM146.008 38.4062C146.008 39.8125 145.82 41.1328 145.445 42.3672C145.07 43.6016 144.547 44.7422 143.875 45.7891C143.219 46.8359 142.422 47.7812 141.484 48.625C140.547 49.4531 139.516 50.1562 138.391 50.7344C137.281 51.3125 136.086 51.7578 134.805 52.0703C133.539 52.3828 132.234 52.5391 130.891 52.5391C129.547 52.5391 128.242 52.3828 126.977 52.0703C125.711 51.7578 124.516 51.3125 123.391 50.7344C122.281 50.1562 121.258 49.4531 120.32 48.625C119.383 47.7812 118.578 46.8359 117.906 45.7891C117.25 44.7422 116.734 43.6016 116.359 42.3672C115.984 41.1172 115.797 39.7969 115.797 38.4062C115.797 37.0156 115.984 35.7031 116.359 34.4688C116.734 33.2188 117.25 32.0703 117.906 31.0234C118.578 29.9766 119.383 29.0391 120.32 28.2109C121.258 27.3672 122.281 26.6562 123.391 26.0781C124.516 25.5 125.711 25.0547 126.977 24.7422C128.242 24.4297 129.547 24.2734 130.891 24.2734C132.234 24.2734 133.539 24.4297 134.805 24.7422C136.086 25.0547 137.281 25.5 138.391 26.0781C139.516 26.6562 140.547 27.3672 141.484 28.2109C142.422 29.0391 143.219 29.9766 143.875 31.0234C144.547 32.0703 145.07 33.2188 145.445 34.4688C145.82 35.7031 146.008 37.0156 146.008 38.4062ZM137.945 38.4062C137.945 37.6562 137.898 36.8672 137.805 36.0391C137.727 35.1953 137.586 34.375 137.383 33.5781C137.18 32.7656 136.898 31.9922 136.539 31.2578C136.195 30.5078 135.766 29.8594 135.25 29.3125C134.734 28.75 134.117 28.3047 133.398 27.9766C132.68 27.6328 131.844 27.4609 130.891 27.4609C129.984 27.4609 129.18 27.6328 128.477 27.9766C127.773 28.3203 127.156 28.7812 126.625 29.3594C126.109 29.9219 125.672 30.5781 125.312 31.3281C124.969 32.0781 124.688 32.8594 124.469 33.6719C124.25 34.4688 124.094 35.2812 124 36.1094C123.906 36.9219 123.859 37.6875 123.859 38.4062C123.859 39.125 123.906 39.8984 124 40.7266C124.094 41.5391 124.25 42.3516 124.469 43.1641C124.688 43.9766 124.969 44.7578 125.312 45.5078C125.672 46.2422 126.109 46.8984 126.625 47.4766C127.156 48.0391 127.773 48.4922 128.477 48.8359C129.18 49.1797 129.984 49.3516 130.891 49.3516C131.828 49.3516 132.656 49.1875 133.375 48.8594C134.094 48.5156 134.711 48.0625 135.227 47.5C135.758 46.9375 136.195 46.2891 136.539 45.5547C136.883 44.8203 137.156 44.0469 137.359 43.2344C137.578 42.4219 137.727 41.6016 137.805 40.7734C137.898 39.9453 137.945 39.1562 137.945 38.4062ZM192.906 36.2031C192.906 38.0625 192.688 40 192.25 42.0156C191.812 44.0312 191.195 46 190.398 47.9219C189.617 49.8281 188.672 51.6328 187.562 53.3359C186.453 55.0391 185.219 56.5156 183.859 57.7656L180.883 56.1484C181.336 55.3359 181.75 54.4219 182.125 53.4062C182.5 52.3906 182.844 51.3203 183.156 50.1953C183.469 49.0703 183.742 47.9141 183.977 46.7266C184.211 45.5391 184.406 44.3594 184.562 43.1875C184.734 42 184.859 40.8516 184.938 39.7422C185.016 38.6328 185.055 37.5938 185.055 36.625C185.055 36.0781 185.039 35.4844 185.008 34.8438C184.977 34.2031 184.906 33.5625 184.797 32.9219C184.703 32.2812 184.555 31.6719 184.352 31.0938C184.148 30.5 183.867 29.9766 183.508 29.5234C183.164 29.0547 182.727 28.6875 182.195 28.4219C181.68 28.1406 181.055 28 180.32 28C179.602 28 178.984 28.1953 178.469 28.5859C177.969 28.9609 177.539 29.4531 177.18 30.0625C176.82 30.6719 176.531 31.3594 176.312 32.125C176.109 32.8906 175.953 33.6641 175.844 34.4453C175.734 35.2109 175.656 35.9453 175.609 36.6484C175.578 37.3516 175.562 37.9453 175.562 38.4297V52H167.664V39.3906C167.664 38.8438 167.672 38.1875 167.688 37.4219C167.703 36.6406 167.68 35.8281 167.617 34.9844C167.57 34.1406 167.469 33.3047 167.312 32.4766C167.172 31.6328 166.938 30.8828 166.609 30.2266C166.297 29.5703 165.867 29.0391 165.32 28.6328C164.773 28.2109 164.086 28 163.258 28C162.555 28 161.961 28.1953 161.477 28.5859C161.008 28.9766 160.609 29.4844 160.281 30.1094C159.969 30.7188 159.719 31.4141 159.531 32.1953C159.359 32.9609 159.227 33.7344 159.133 34.5156C159.055 35.2812 159.008 36.0156 158.992 36.7188C158.977 37.4062 158.969 37.9766 158.969 38.4297V52H151.023V24.9297H154.07L156.977 31.2344C157.633 29.0469 158.664 27.3438 160.07 26.125C161.492 24.8906 163.375 24.2734 165.719 24.2734C167.828 24.2734 169.578 24.7109 170.969 25.5859C172.359 26.4609 173.453 27.8828 174.25 29.8516C174.703 28.9922 175.203 28.2188 175.75 27.5312C176.312 26.8438 176.93 26.2578 177.602 25.7734C178.289 25.2891 179.047 24.9219 179.875 24.6719C180.703 24.4062 181.617 24.2734 182.617 24.2734C184.461 24.2734 186.031 24.5781 187.328 25.1875C188.641 25.7812 189.711 26.6094 190.539 27.6719C191.367 28.7344 191.969 30 192.344 31.4688C192.719 32.9219 192.906 34.5 192.906 36.2031ZM206.5 18.3906C206.5 18.9844 206.383 19.5469 206.148 20.0781C205.93 20.6094 205.625 21.0703 205.234 21.4609C204.844 21.8516 204.383 22.1641 203.852 22.3984C203.32 22.6172 202.758 22.7266 202.164 22.7266C201.57 22.7266 201.008 22.6172 200.477 22.3984C199.961 22.1641 199.508 21.8516 199.117 21.4609C198.727 21.0703 198.414 20.6094 198.18 20.0781C197.961 19.5469 197.852 18.9844 197.852 18.3906C197.852 17.7969 197.961 17.2422 198.18 16.7266C198.414 16.1953 198.727 15.7344 199.117 15.3438C199.508 14.9531 199.961 14.6484 200.477 14.4297C201.008 14.1953 201.57 14.0781 202.164 14.0781C202.758 14.0781 203.32 14.1953 203.852 14.4297C204.383 14.6484 204.844 14.9531 205.234 15.3438C205.625 15.7344 205.93 16.1953 206.148 16.7266C206.383 17.2422 206.5 17.7969 206.5 18.3906ZM206.148 52H198.203V24.9531H206.148V52ZM240.484 36.4844C240.484 38.3125 240.258 40.2188 239.805 42.2031C239.367 44.1875 238.75 46.1328 237.953 48.0391C237.156 49.9453 236.203 51.7344 235.094 53.4062C233.984 55.0938 232.766 56.5469 231.438 57.7656L228.461 56.1484C228.883 55.3672 229.281 54.4922 229.656 53.5234C230.031 52.5547 230.367 51.5312 230.664 50.4531C230.977 49.3594 231.25 48.2344 231.484 47.0781C231.734 45.9219 231.938 44.7812 232.094 43.6562C232.266 42.5156 232.391 41.4141 232.469 40.3516C232.562 39.2734 232.609 38.2734 232.609 37.3516C232.609 36.7422 232.586 36.0938 232.539 35.4062C232.492 34.7031 232.391 34.0078 232.234 33.3203C232.094 32.6172 231.898 31.9453 231.648 31.3047C231.398 30.6641 231.062 30.1016 230.641 29.6172C230.234 29.1328 229.734 28.7422 229.141 28.4453C228.562 28.1484 227.875 28 227.078 28C226.297 28 225.602 28.1797 224.992 28.5391C224.383 28.8828 223.844 29.3438 223.375 29.9219C222.906 30.4844 222.5 31.1328 222.156 31.8672C221.828 32.6016 221.555 33.3594 221.336 34.1406C221.133 34.9062 220.984 35.6641 220.891 36.4141C220.797 37.1641 220.75 37.8359 220.75 38.4297V52H212.805V24.9297H215.852L219.484 31.2344C219.922 30.1875 220.469 29.2344 221.125 28.375C221.781 27.5156 222.523 26.7812 223.352 26.1719C224.18 25.5625 225.094 25.0938 226.094 24.7656C227.109 24.4375 228.203 24.2734 229.375 24.2734C231.25 24.2734 232.883 24.5781 234.273 25.1875C235.664 25.7969 236.82 26.6484 237.742 27.7422C238.664 28.8203 239.352 30.1094 239.805 31.6094C240.258 33.0938 240.484 34.7188 240.484 36.4844ZM272.969 48.7422C272.969 50.8984 272.648 52.9297 272.008 54.8359C271.367 56.7422 270.438 58.4062 269.219 59.8281C268 61.2656 266.5 62.3984 264.719 63.2266C262.953 64.0703 260.938 64.4922 258.672 64.4922C257.422 64.4922 256.156 64.3516 254.875 64.0703C253.609 63.7891 252.406 63.3516 251.266 62.7578C250.141 62.1797 249.125 61.4375 248.219 60.5312C247.328 59.6406 246.625 58.5859 246.109 57.3672L249.531 56.0781C249.828 56.8438 250.211 57.5469 250.68 58.1875C251.164 58.8281 251.719 59.375 252.344 59.8281C252.969 60.2969 253.656 60.6562 254.406 60.9062C255.156 61.1719 255.945 61.3047 256.773 61.3047C258.336 61.3047 259.641 60.9844 260.688 60.3438C261.75 59.7031 262.602 58.8672 263.242 57.8359C263.883 56.8047 264.344 55.6328 264.625 54.3203C264.906 53.0234 265.047 51.7031 265.047 50.3594V48.7656C264.109 50.0469 262.977 51 261.648 51.625C260.336 52.2344 258.891 52.5391 257.312 52.5391C255.25 52.5391 253.406 52.1719 251.781 51.4375C250.156 50.7031 248.781 49.7031 247.656 48.4375C246.531 47.1562 245.672 45.6562 245.078 43.9375C244.484 42.2188 244.188 40.375 244.188 38.4062C244.188 36.4375 244.484 34.5938 245.078 32.875C245.672 31.1562 246.531 29.6641 247.656 28.3984C248.781 27.1172 250.156 26.1094 251.781 25.375C253.406 24.6406 255.25 24.2734 257.312 24.2734C258.359 24.2734 259.352 24.4297 260.289 24.7422C261.242 25.0547 262.109 25.5 262.891 26.0781C263.688 26.6406 264.383 27.3281 264.977 28.1406C265.586 28.9375 266.062 29.8281 266.406 30.8125L269.922 24.9297H272.969V48.7422ZM265 38.4062C265 37.7031 264.961 36.9609 264.883 36.1797C264.82 35.3984 264.703 34.625 264.531 33.8594C264.359 33.0938 264.117 32.3672 263.805 31.6797C263.508 30.9766 263.117 30.3594 262.633 29.8281C262.164 29.2812 261.594 28.8516 260.922 28.5391C260.25 28.2266 259.469 28.0703 258.578 28.0703C257.688 28.0703 256.914 28.2344 256.258 28.5625C255.602 28.875 255.039 29.3047 254.57 29.8516C254.102 30.3828 253.711 31 253.398 31.7031C253.102 32.4062 252.867 33.1406 252.695 33.9062C252.523 34.6719 252.398 35.4453 252.32 36.2266C252.258 36.9922 252.227 37.7188 252.227 38.4062C252.227 39.0938 252.258 39.8281 252.32 40.6094C252.398 41.3906 252.523 42.1641 252.695 42.9297C252.867 43.6953 253.102 44.4297 253.398 45.1328C253.711 45.8359 254.102 46.4609 254.57 47.0078C255.039 47.5391 255.602 47.9688 256.258 48.2969C256.914 48.6094 257.688 48.7656 258.578 48.7656C259.391 48.7656 260.109 48.6016 260.734 48.2734C261.375 47.9297 261.93 47.4766 262.398 46.9141C262.883 46.3516 263.289 45.7109 263.617 44.9922C263.945 44.2734 264.211 43.5312 264.414 42.7656C264.617 42 264.766 41.2422 264.859 40.4922C264.953 39.7266 265 39.0312 265 38.4062ZM324.367 26.6172L320.359 28.3047C320.047 27.2891 319.625 26.3594 319.094 25.5156C318.578 24.6719 317.953 23.9531 317.219 23.3594C316.5 22.75 315.68 22.2812 314.758 21.9531C313.836 21.6094 312.828 21.4375 311.734 21.4375C310.562 21.4375 309.484 21.6328 308.5 22.0234C307.531 22.4141 306.656 22.9453 305.875 23.6172C305.109 24.2734 304.438 25.0469 303.859 25.9375C303.281 26.8281 302.797 27.7812 302.406 28.7969C302.031 29.7969 301.742 30.8359 301.539 31.9141C301.352 32.9922 301.258 34.0469 301.258 35.0781C301.258 36.7188 301.445 38.3516 301.82 39.9766C302.211 41.6016 302.82 43.0625 303.648 44.3594C304.492 45.6562 305.578 46.7109 306.906 47.5234C308.234 48.3203 309.844 48.7188 311.734 48.7188C312.766 48.7188 313.57 48.4922 314.148 48.0391C314.727 47.5703 315.016 46.7578 315.016 45.6016V35.2422H324.32V52H321.625L319.984 49.3516C318.484 50.4922 316.828 51.3359 315.016 51.8828C313.219 52.4141 311.383 52.6797 309.508 52.6797C307.852 52.6797 306.258 52.4766 304.727 52.0703C303.211 51.6641 301.797 51.0859 300.484 50.3359C299.172 49.5859 297.977 48.6797 296.898 47.6172C295.836 46.5547 294.922 45.375 294.156 44.0781C293.406 42.7812 292.82 41.375 292.398 39.8594C291.992 38.3281 291.789 36.7344 291.789 35.0781C291.789 33.4219 291.992 31.8359 292.398 30.3203C292.82 28.7891 293.406 27.375 294.156 26.0781C294.922 24.7656 295.836 23.5781 296.898 22.5156C297.977 21.4531 299.172 20.5469 300.484 19.7969C301.797 19.0469 303.211 18.4688 304.727 18.0625C306.258 17.6562 307.852 17.4531 309.508 17.4531C311.102 17.4531 312.656 17.6406 314.172 18.0156C315.703 18.3906 317.125 18.9609 318.438 19.7266C319.75 20.4766 320.914 21.4297 321.93 22.5859C322.961 23.7266 323.773 25.0703 324.367 26.6172ZM357.391 52H349.469V48.7656C348.531 50.0469 347.398 51 346.07 51.625C344.758 52.2344 343.312 52.5391 341.734 52.5391C339.672 52.5391 337.828 52.1719 336.203 51.4375C334.578 50.7031 333.203 49.7031 332.078 48.4375C330.953 47.1562 330.094 45.6562 329.5 43.9375C328.906 42.2188 328.609 40.375 328.609 38.4062C328.609 36.4375 328.906 34.5938 329.5 32.875C330.094 31.1562 330.953 29.6641 332.078 28.3984C333.203 27.1172 334.578 26.1094 336.203 25.375C337.828 24.6406 339.672 24.2734 341.734 24.2734C342.781 24.2734 343.773 24.4297 344.711 24.7422C345.664 25.0547 346.531 25.5 347.312 26.0781C348.109 26.6406 348.805 27.3281 349.398 28.1406C350.008 28.9375 350.484 29.8281 350.828 30.8125L354.344 24.9297H357.391V52ZM349.422 38.4062C349.422 37.7031 349.383 36.9609 349.305 36.1797C349.242 35.3984 349.125 34.625 348.953 33.8594C348.781 33.0938 348.539 32.3672 348.227 31.6797C347.93 30.9766 347.539 30.3594 347.055 29.8281C346.586 29.2812 346.016 28.8516 345.344 28.5391C344.672 28.2266 343.891 28.0703 343 28.0703C342.109 28.0703 341.336 28.2344 340.68 28.5625C340.023 28.875 339.461 29.3047 338.992 29.8516C338.523 30.3828 338.133 31 337.82 31.7031C337.523 32.4062 337.289 33.1406 337.117 33.9062C336.945 34.6719 336.82 35.4453 336.742 36.2266C336.68 36.9922 336.648 37.7188 336.648 38.4062C336.648 39.0938 336.68 39.8281 336.742 40.6094C336.82 41.3906 336.945 42.1641 337.117 42.9297C337.289 43.6953 337.523 44.4297 337.82 45.1328C338.133 45.8359 338.523 46.4609 338.992 47.0078C339.461 47.5391 340.023 47.9688 340.68 48.2969C341.336 48.6094 342.109 48.7656 343 48.7656C343.812 48.7656 344.531 48.6016 345.156 48.2734C345.797 47.9297 346.352 47.4766 346.82 46.9141C347.305 46.3516 347.711 45.7109 348.039 44.9922C348.367 44.2734 348.633 43.5312 348.836 42.7656C349.039 42 349.188 41.2422 349.281 40.4922C349.375 39.7266 349.422 39.0312 349.422 38.4062ZM405.906 36.2031C405.906 38.0625 405.688 40 405.25 42.0156C404.812 44.0312 404.195 46 403.398 47.9219C402.617 49.8281 401.672 51.6328 400.562 53.3359C399.453 55.0391 398.219 56.5156 396.859 57.7656L393.883 56.1484C394.336 55.3359 394.75 54.4219 395.125 53.4062C395.5 52.3906 395.844 51.3203 396.156 50.1953C396.469 49.0703 396.742 47.9141 396.977 46.7266C397.211 45.5391 397.406 44.3594 397.562 43.1875C397.734 42 397.859 40.8516 397.938 39.7422C398.016 38.6328 398.055 37.5938 398.055 36.625C398.055 36.0781 398.039 35.4844 398.008 34.8438C397.977 34.2031 397.906 33.5625 397.797 32.9219C397.703 32.2812 397.555 31.6719 397.352 31.0938C397.148 30.5 396.867 29.9766 396.508 29.5234C396.164 29.0547 395.727 28.6875 395.195 28.4219C394.68 28.1406 394.055 28 393.32 28C392.602 28 391.984 28.1953 391.469 28.5859C390.969 28.9609 390.539 29.4531 390.18 30.0625C389.82 30.6719 389.531 31.3594 389.312 32.125C389.109 32.8906 388.953 33.6641 388.844 34.4453C388.734 35.2109 388.656 35.9453 388.609 36.6484C388.578 37.3516 388.562 37.9453 388.562 38.4297V52H380.664V39.3906C380.664 38.8438 380.672 38.1875 380.688 37.4219C380.703 36.6406 380.68 35.8281 380.617 34.9844C380.57 34.1406 380.469 33.3047 380.312 32.4766C380.172 31.6328 379.938 30.8828 379.609 30.2266C379.297 29.5703 378.867 29.0391 378.32 28.6328C377.773 28.2109 377.086 28 376.258 28C375.555 28 374.961 28.1953 374.477 28.5859C374.008 28.9766 373.609 29.4844 373.281 30.1094C372.969 30.7188 372.719 31.4141 372.531 32.1953C372.359 32.9609 372.227 33.7344 372.133 34.5156C372.055 35.2812 372.008 36.0156 371.992 36.7188C371.977 37.4062 371.969 37.9766 371.969 38.4297V52H364.023V24.9297H367.07L369.977 31.2344C370.633 29.0469 371.664 27.3438 373.07 26.125C374.492 24.8906 376.375 24.2734 378.719 24.2734C380.828 24.2734 382.578 24.7109 383.969 25.5859C385.359 26.4609 386.453 27.8828 387.25 29.8516C387.703 28.9922 388.203 28.2188 388.75 27.5312C389.312 26.8438 389.93 26.2578 390.602 25.7734C391.289 25.2891 392.047 24.9219 392.875 24.6719C393.703 24.4062 394.617 24.2734 395.617 24.2734C397.461 24.2734 399.031 24.5781 400.328 25.1875C401.641 25.7812 402.711 26.6094 403.539 27.6719C404.367 28.7344 404.969 30 405.344 31.4688C405.719 32.9219 405.906 34.5 405.906 36.2031ZM417.695 39.1562C418.664 39.375 419.633 39.5469 420.602 39.6719C421.57 39.7969 422.547 39.8594 423.531 39.8594C424.562 39.8594 425.516 39.7656 426.391 39.5781C427.281 39.375 428.047 39.0469 428.688 38.5938C429.344 38.125 429.859 37.5078 430.234 36.7422C430.609 35.9766 430.797 35.0234 430.797 33.8828C430.797 32.9609 430.672 32.1172 430.422 31.3516C430.172 30.5859 429.797 29.9297 429.297 29.3828C428.812 28.8359 428.211 28.4141 427.492 28.1172C426.773 27.8047 425.938 27.6484 424.984 27.6484C424.094 27.6484 423.289 27.8125 422.57 28.1406C421.867 28.4688 421.242 28.9141 420.695 29.4766C420.164 30.0234 419.703 30.6641 419.312 31.3984C418.938 32.1328 418.625 32.8984 418.375 33.6953C418.125 34.4922 417.945 35.2969 417.836 36.1094C417.727 36.9219 417.672 37.6875 417.672 38.4062C417.672 38.5312 417.672 38.6562 417.672 38.7812C417.672 38.9062 417.68 39.0312 417.695 39.1562ZM437.219 33.8125C437.219 34.9219 437.039 35.9141 436.68 36.7891C436.32 37.6484 435.828 38.4062 435.203 39.0625C434.594 39.7188 433.883 40.2734 433.07 40.7266C432.258 41.1797 431.391 41.5547 430.469 41.8516C429.547 42.1328 428.594 42.3359 427.609 42.4609C426.641 42.5859 425.695 42.6484 424.773 42.6484C423.602 42.6484 422.445 42.5703 421.305 42.4141C420.164 42.2422 419.039 41.9766 417.93 41.6172C418.102 42.6484 418.375 43.6328 418.75 44.5703C419.125 45.4922 419.625 46.3047 420.25 47.0078C420.875 47.6953 421.641 48.2422 422.547 48.6484C423.469 49.0547 424.555 49.2578 425.805 49.2578C426.633 49.2578 427.422 49.1328 428.172 48.8828C428.922 48.6328 429.609 48.2812 430.234 47.8281C430.859 47.375 431.406 46.8359 431.875 46.2109C432.359 45.5859 432.75 44.8906 433.047 44.125L436.469 45.3906C435.953 46.625 435.242 47.6953 434.336 48.6016C433.445 49.4922 432.43 50.2344 431.289 50.8281C430.164 51.4062 428.961 51.8359 427.68 52.1172C426.414 52.3984 425.156 52.5391 423.906 52.5391C421.844 52.5391 419.938 52.1953 418.188 51.5078C416.438 50.8047 414.93 49.8281 413.664 48.5781C412.398 47.3281 411.406 45.8359 410.688 44.1016C409.969 42.3672 409.609 40.4688 409.609 38.4062C409.609 36.3438 409.969 34.4453 410.688 32.7109C411.406 30.9766 412.398 29.4844 413.664 28.2344C414.93 26.9844 416.438 26.0156 418.188 25.3281C419.938 24.625 421.844 24.2734 423.906 24.2734C424.906 24.2734 425.93 24.3438 426.977 24.4844C428.023 24.625 429.039 24.8516 430.023 25.1641C431.008 25.4609 431.938 25.8516 432.812 26.3359C433.688 26.8203 434.445 27.4219 435.086 28.1406C435.742 28.8438 436.258 29.6641 436.633 30.6016C437.023 31.5391 437.219 32.6094 437.219 33.8125ZM465.461 43.3516C465.461 44.5391 465.289 45.5938 464.945 46.5156C464.602 47.4375 464.133 48.2422 463.539 48.9297C462.945 49.6016 462.242 50.1719 461.43 50.6406C460.617 51.0938 459.742 51.4609 458.805 51.7422C457.883 52.0234 456.914 52.2266 455.898 52.3516C454.883 52.4766 453.875 52.5391 452.875 52.5391C451.531 52.5391 450.344 52.4531 449.312 52.2812C448.281 52.1094 447.297 51.8359 446.359 51.4609C445.422 51.0703 444.484 50.5703 443.547 49.9609C442.625 49.3516 441.594 48.6094 440.453 47.7344L445.07 43.9609C445.492 44.7578 446.047 45.4844 446.734 46.1406C447.438 46.7812 448.164 47.3359 448.914 47.8047C449.664 48.2734 450.391 48.6328 451.094 48.8828C451.797 49.1328 452.367 49.2578 452.805 49.2578C453.164 49.2578 453.57 49.25 454.023 49.2344C454.477 49.2031 454.938 49.1562 455.406 49.0938C455.875 49.0156 456.336 48.9062 456.789 48.7656C457.242 48.625 457.641 48.4375 457.984 48.2031C458.344 47.9531 458.625 47.6484 458.828 47.2891C459.047 46.9141 459.156 46.4688 459.156 45.9531C459.156 45.4219 459.016 44.9609 458.734 44.5703C458.469 44.1641 458.117 43.8125 457.68 43.5156C457.242 43.2188 456.742 42.9688 456.18 42.7656C455.617 42.5625 455.047 42.3828 454.469 42.2266C453.906 42.0703 453.359 41.9375 452.828 41.8281C452.297 41.7031 451.836 41.5859 451.445 41.4766C450.727 41.2734 449.969 41.0703 449.172 40.8672C448.375 40.6484 447.586 40.4062 446.805 40.1406C446.023 39.8594 445.273 39.5312 444.555 39.1562C443.852 38.7812 443.227 38.3359 442.68 37.8203C442.148 37.2891 441.719 36.6719 441.391 35.9688C441.078 35.25 440.922 34.4141 440.922 33.4609C440.922 31.7109 441.266 30.25 441.953 29.0781C442.656 27.8906 443.578 26.9453 444.719 26.2422C445.859 25.5234 447.156 25.0156 448.609 24.7188C450.062 24.4219 451.539 24.2734 453.039 24.2734C454.07 24.2734 455.156 24.3828 456.297 24.6016C457.438 24.8047 458.547 25.1172 459.625 25.5391C460.703 25.9453 461.711 26.4453 462.648 27.0391C463.586 27.6328 464.367 28.3125 464.992 29.0781L460.375 32.875C460.031 31.9375 459.578 31.1328 459.016 30.4609C458.469 29.7891 457.867 29.2422 457.211 28.8203C456.57 28.3828 455.906 28.0625 455.219 27.8594C454.547 27.6562 453.922 27.5547 453.344 27.5547C452.781 27.5547 452.148 27.5781 451.445 27.625C450.742 27.6719 450.078 27.8047 449.453 28.0234C448.844 28.2422 448.32 28.5781 447.883 29.0312C447.461 29.4688 447.25 30.0781 447.25 30.8594C447.25 31.4219 447.375 31.9062 447.625 32.3125C447.891 32.7031 448.234 33.0469 448.656 33.3438C449.078 33.625 449.555 33.8672 450.086 34.0703C450.633 34.2578 451.188 34.4297 451.75 34.5859C452.312 34.7266 452.859 34.8516 453.391 34.9609C453.922 35.0703 454.398 35.1875 454.82 35.3125C455.539 35.5156 456.297 35.7266 457.094 35.9453C457.906 36.1484 458.703 36.3906 459.484 36.6719C460.266 36.9375 461.016 37.2578 461.734 37.6328C462.469 37.9922 463.109 38.4375 463.656 38.9688C464.203 39.5 464.641 40.125 464.969 40.8438C465.297 41.5469 465.461 42.3828 465.461 43.3516Z" fill="#5D5FEF"/>
</g>
<defs>
<filter id="filter0_d_411_1264" x="0.203125" y="0.078125" width="480.258" height="80.4141" filterUnits="userSpaceOnUse" color-interpolation-filters="sRGB">
<feFlood flood-opacity="0" result="BackgroundImageFix"/>
<feColorMatrix in="SourceAlpha" type="matrix" values="0 0 0 0 0 0 0 0 0 0 0 0 0 0 0 0 0 0 127 0" result="hardAlpha"/>
<feOffset dy="1"/>
<feGaussianBlur stdDeviation="7.5"/>
<feComposite in2="hardAlpha" operator="out"/>
<feColorMatrix type="matrix" values="0 0 0 0 0.423529 0 0 0 0 0.8 0 0 0 0 0.894118 0 0 0 0.49 0"/>
<feBlend mode="normal" in2="BackgroundImageFix" result="effect1_dropShadow_411_1264"/>
<feBlend mode="normal" in="SourceGraphic" in2="effect1_dropShadow_411_1264" result="shape"/>
</filter>
</defs>
</svg>
